<svg width="771" height="724" viewBox="0 0 771 724" fill="none" xmlns="http://www.w3.org/2000/svg">
<path fill-rule="evenodd" clip-rule="evenodd" d="M72.9363 89.4278C73.0513 89.6198 73.1663 89.8128 73.2813 90.0048C73.0833 88.9188 72.9693 88.7268 72.9363 89.4278Z" fill="black"/>
<path fill-rule="evenodd" clip-rule="evenodd" d="M510.325 218.83C510.336 218.828 510.345 218.822 510.351 218.812L510.325 218.83Z" fill="black"/>
<path fill-rule="evenodd" clip-rule="evenodd" d="M756.099 532.921C748.597 533.383 741.637 536.667 734.389 538.359C726.698 540.155 718.855 541.258 711.123 542.869C707.406 543.644 703.652 544.425 699.885 544.93C696.146 545.432 692.647 546.374 688.967 547.172C681.659 548.756 673.882 549.908 666.786 552.251C659.828 554.548 652.379 555.009 645.157 556.236C637.35 557.563 629.488 558.486 621.696 559.892C614.01 561.279 606.334 562.724 598.65 564.114C594.971 564.78 591.36 566.129 587.62 566.295C583.427 566.48 579.487 566.959 575.365 567.772C559.561 570.892 543.837 574.637 528.152 578.321C524.328 579.219 520.509 580.14 516.697 581.085C512.799 582.05 508.745 582.611 504.903 583.755C497.848 585.855 490.746 587.978 483.402 588.462C479.728 588.704 476.352 590.304 472.787 591.076C469.04 591.886 465.173 592.034 461.377 592.496C453.739 593.427 446.016 596.194 438.641 598.345C431.287 600.49 423.986 603.097 416.552 604.925C408.764 606.84 400.873 608.3 393.09 610.247C377.978 614.028 363.332 619.592 347.999 622.33C346.823 622.54 344.913 623.15 343.726 622.703C342.481 622.235 341.911 620.65 341.258 619.598C339.346 616.516 337.634 613.595 337.226 609.912C336.857 606.591 336.916 603.385 334.694 600.667C334.046 599.875 333.205 599.727 334.352 598.842C335.096 598.269 337.55 598.409 338.487 598.25C341.826 597.68 344.651 596.098 347.929 595.3C351.584 594.41 355.154 593.442 358.696 592.165C365.85 589.585 373.004 587.228 380.254 584.934C383.807 583.81 387.334 582.609 390.79 581.213C392.442 580.546 394.087 579.755 395.865 579.487C397.799 579.194 399.511 579.243 401.413 578.626C408.9 576.199 416.658 574.466 424.318 572.666C431.585 570.957 439.085 569.101 446.486 568.149C450.18 567.673 453.565 566.788 457.138 565.773C460.925 564.696 464.877 564.404 468.725 563.617C475.495 562.232 483.083 561.954 489.498 559.317C492.528 558.071 495.382 558.048 498.574 557.47C502.501 556.757 506.415 556.013 510.352 555.324C514.122 554.664 517.852 553.796 521.611 553.077C525.401 552.353 529.618 552.318 533.256 551.003C539.682 548.678 546.872 548.738 553.583 547.39C561.471 545.805 569.47 544.884 577.357 543.278C584.974 541.728 592.812 540.653 600.333 538.711C603.851 537.802 607.112 536.758 610.748 536.337C614.717 535.878 618.605 534.995 622.527 534.251C629.817 532.867 637.229 532.534 644.539 531.272C659.424 528.702 673.847 524.219 688.359 520.098C695.812 517.982 703.201 515.918 710.805 514.422C714.379 513.72 717.73 512.445 721.239 511.51C725.144 510.47 729.123 509.75 733.091 509.002C736.684 508.325 740.272 507.612 743.835 506.799C745.553 506.407 748.496 504.826 750.163 505.236C751.714 505.618 751.662 508.179 751.969 509.546C752.751 513.022 753.865 516.435 754.912 519.838C755.809 522.756 756.718 525.671 757.657 528.575C758.246 530.404 758.74 532.758 756.099 532.921ZM745.048 546.093C741.146 548.422 738.455 552.306 735.27 555.459C731.706 558.985 727.891 562.288 724.078 565.541C720.131 568.908 716.082 572.156 711.927 575.263C708.064 578.15 703.977 580.842 700.484 584.189C697.202 587.335 694.735 591.325 691.115 594.117C687.562 596.857 683.209 598.163 679.581 600.82C677.889 602.061 676.351 603.527 674.38 604.318C672.113 605.228 669.703 605.912 667.4 606.744C665.145 607.558 662.95 607.814 660.594 608.183C658.039 608.583 656.226 609.307 653.597 608.877C654.801 608.16 655.984 607.209 657.31 606.737C658.438 606.335 659.437 606.534 660.61 606.5C663.059 606.428 665.128 605.143 667.576 605.019C665.42 603.234 662.132 604.425 659.786 605.15C656.127 606.282 652.409 607.22 648.738 608.313C641.413 610.495 634.063 612.519 626.635 614.324C611.096 618.1 595.503 621.664 579.912 625.223C572.256 626.971 564.463 628.053 556.813 629.792C549.559 631.441 542.016 632.045 534.658 633.443C519.145 636.39 503.618 639.267 488.132 642.356C472.87 645.399 457.407 648.489 442.454 652.836C435.455 654.871 428.509 657.352 421.452 658.892C414.163 660.483 407.171 662.924 400.003 664.93C392.556 667.014 385.031 668.607 377.662 670.989C370.222 673.395 362.77 675.669 355.227 677.732C353.65 678.164 352.211 678.697 350.689 679.282C348.805 680.006 347.172 680.009 345.212 680.269C343.706 680.468 342.537 681.146 341.14 681.671C339.502 682.289 337.864 681.97 336.345 682.848C333.3 684.609 330.25 685.019 326.78 685.719C322.723 686.536 318.802 687.774 314.869 689.046C307.632 691.384 300.28 693.237 293.028 695.489C291.941 695.827 280.316 700.527 280.107 699.135C279.98 698.242 283.077 696.554 283.777 696.043C287.002 693.687 290.201 691.277 293.365 688.838C299.096 684.421 304.266 679.429 309.673 674.637C315.277 669.671 321.424 665.401 326.777 660.14C331.887 655.118 336.01 649.234 340.752 643.882C342.776 641.598 344.358 639.357 345.694 636.619C347.146 633.641 348.905 632.983 352.176 633.021C359.381 633.106 367.032 630.849 373.876 628.723C380.821 626.567 388.033 624.033 395.24 622.986C402.54 621.925 409.553 619.684 416.775 618.155C424.412 616.539 431.745 614.124 439.211 611.892C446.642 609.67 454.237 607.951 461.728 605.937C465.204 605.002 468.652 604.002 472.11 603.002C475.925 601.9 479.492 601.997 483.387 601.53C490.638 600.66 497.383 598.444 504.487 596.954C508.004 596.217 511.107 595.32 514.419 593.942C517.804 592.535 521.393 592.224 524.957 591.47C532.676 589.837 540.271 587.493 547.935 585.607C555.255 583.806 562.737 582.346 570.127 580.849C573.659 580.134 577.215 579.859 580.774 579.356C584.733 578.796 588.566 577.567 592.505 576.879C607.737 574.213 622.925 571.291 638.179 568.741C646.018 567.431 653.792 565.988 661.357 563.508C664.622 562.437 668.046 562.401 671.369 561.475C674.846 560.506 678.236 559.079 681.809 558.487C683.675 558.178 685.627 558.218 687.435 557.602C688.659 557.185 689.712 556.375 690.953 556.008C694.558 554.943 698.626 554.882 702.316 553.978C709.86 552.129 717.546 551.02 725.116 549.298C732.452 547.63 739.649 545.423 746.9 543.434C746.317 544.302 746.002 545.524 745.048 546.093ZM273 682.323C267.319 686.657 261.462 690.779 255.957 695.339C250.984 699.459 246.676 704.306 242.435 709.157C240.999 710.799 239.296 713.248 237.594 710.555C235.928 707.921 235.127 704.411 234.111 701.485C232.973 698.214 231.897 694.914 230.691 691.669C229.787 689.239 228.107 686.74 229.876 684.305C231.52 682.045 234.173 680.097 236.161 678.123C238.735 675.566 241.303 673 244.005 670.576C249.183 665.929 254.662 661.617 259.995 657.151C265.715 652.362 271.317 647.43 276.928 642.515C281.814 638.236 286.51 633.715 291.768 629.885C304.1 620.902 314.038 609.137 325.566 599.215C327.475 606.971 328.8 614.919 331.053 622.585C331.966 625.693 333.773 628.43 334.604 631.569C335.581 635.265 333.245 636.411 330.513 638.391C331.948 636.441 333.605 635.273 333.537 632.735C330.646 633.395 328.403 635.631 326.156 637.42C323.748 639.336 321.366 641.276 319.013 643.259C313.781 647.667 308.601 652.138 303.421 656.607C293.368 665.278 283.564 674.265 273 682.323ZM249.734 631.447C244.783 631.781 240.01 633.266 235.046 633.571C232.675 633.716 230.326 634.212 227.953 634.286C225.248 634.37 222.599 633.94 219.883 634.088C214.578 634.379 209.349 633.929 204.057 633.629C198.797 633.33 193.58 633.204 188.361 632.41C186.24 632.087 184.13 631.756 182 631.493C180.266 631.278 177.55 631.221 176.828 629.342C176.154 627.585 176.738 624.664 176.765 622.808C176.79 621.129 176.882 619.448 176.887 617.77C176.895 615.426 176.737 611.714 173.729 611.359C171.973 611.151 170.195 612.375 168.704 613.129C166.214 614.388 163.767 615.694 161.391 617.161C159.058 618.6 156.737 620.102 154.54 621.743C152.798 623.044 151.006 624.807 148.655 624.506C146.639 624.249 144.885 622.846 143.049 622.083C140.439 620.999 137.466 620.48 134.651 620.421C135.007 616.192 135.364 611.964 135.72 607.736C135.851 606.187 135.982 604.637 136.112 603.087C136.25 601.451 136.003 599.297 136.412 597.713C137.071 595.162 141.942 596.72 144.069 596.887C148.189 597.212 152.313 597.509 156.428 597.886C158.38 598.066 162.44 599.276 164.137 597.909C166.246 596.209 165.667 589.89 165.815 587.498C165.927 585.672 165.284 580.608 166.972 579.396C168.071 578.608 170.389 579.223 171.605 579.289C173.576 579.397 175.55 579.455 177.525 579.413C193.086 579.088 208.581 575.624 223.722 572.252C227.086 571.503 229.91 570.361 231.603 574.069C233.301 577.789 234.837 581.598 236.466 585.351C237.728 588.26 240.049 591.046 238.508 594.233C236.811 597.743 234.701 601.146 232.728 604.509C231.441 606.702 227.397 612.157 232.45 612.615C236.033 612.94 240.345 611.6 243.87 610.993C245.392 610.731 246.89 610.389 248.051 611.578C249.343 612.9 249.953 615.479 250.706 617.139C252.639 621.395 254.715 625.58 256.473 629.915C254.251 630.515 252.047 631.291 249.734 631.447ZM173.243 630.187C168.892 629.474 164.542 628.76 160.192 628.047C159.089 627.866 152.658 627.718 153.62 625.842C153.995 625.111 156.287 624.279 156.953 623.859C158.832 622.672 160.714 621.487 162.634 620.367C166.195 618.291 169.895 616.416 173.829 615.157C173.634 620.167 173.438 625.177 173.243 630.187ZM136.837 589.316C136.989 586.492 136.806 582.982 137.516 580.246C138.175 577.705 140.385 577.227 142.753 577.47C145.695 577.772 148.565 578.713 151.519 579.053C155.18 579.474 158.872 579.532 162.552 579.357C162.552 583.559 163.147 588.229 162.125 592.35C161.286 595.736 157.911 594.486 155.286 594.312C150.903 594.022 146.524 593.889 142.154 593.404C139.52 593.112 136.66 592.632 136.837 589.316ZM224.391 537.709C223.963 536.458 223.22 535.32 222.851 534.049C222.527 532.93 222.568 531.821 222.074 530.746C220.965 528.331 219.169 526.317 218.19 523.786C217.086 520.935 216.78 517.519 215.019 514.953C214.252 513.838 213.629 513.253 213.203 511.962C212.739 510.56 212.167 509.532 211.537 508.202C210.548 506.113 210.056 504.159 208.879 502.094C207.431 499.552 206.055 496.88 204.853 494.213C204.306 493.002 204.089 489.697 202.755 488.964C201.688 488.379 201.705 489.482 200.858 488.263C200.173 487.28 200.211 486.699 201.452 486.228C200.957 485.523 199.988 485.866 199.4 485.256C198.83 484.665 198.959 483.651 198.749 482.922C199.538 483.172 200.328 483.417 201.12 483.663C198.818 478.704 196.74 473.644 194.253 468.772C192.107 464.564 190.667 459.983 187.657 456.358C186.153 454.547 187.276 452.68 186.25 450.747C185.86 450.009 185.172 449.486 184.832 448.707C184.482 447.902 184.625 446.752 184.136 446.028C183.45 445.012 182.877 445.66 182.019 445.086C181.407 444.677 181.089 443.927 180.733 443.315C180.548 442.998 179.807 441.948 179.887 441.567C180.136 440.371 180.904 441.509 181.476 440.912C180.218 437.725 178.836 434.593 177.455 431.458C176.821 430.015 175.712 424.842 173.437 426.422C172.187 423.393 172.464 420.883 171.129 417.864C169.242 413.595 167.511 409.258 165.71 404.952C164.835 402.86 164.05 400.709 163.115 398.644C162.329 396.912 160.968 396.063 159.953 394.557C159.016 393.169 159.001 390.774 158.435 389.019C156.134 381.891 152.238 375.702 149.022 368.998C147.013 364.811 145.199 360.546 143.28 356.318C142.346 354.26 141.279 352.275 140.296 350.243C139.91 349.442 139.567 348.694 139.416 347.806C139.328 347.293 139.542 346.252 139.313 345.832C138.993 345.244 138.115 343.743 137.655 342.807C136.983 341.437 135.569 340.63 135.237 339.215C135.027 338.32 135.378 337.907 134.824 337.038C134.146 335.977 133.751 335.869 133.551 334.491C133.249 332.415 132.594 331.141 131.319 329.45C130.099 327.834 129.439 326.304 128.654 324.457C128.064 323.07 126.37 321.04 126.953 319.472C127.445 318.151 128.975 317.97 130.171 317.676C132.239 317.168 134.257 316.595 136.274 315.901C140.527 314.438 144.249 312.291 147.968 309.787C151.371 307.496 154.894 304.58 158.602 302.839C161.892 301.296 165.315 297.998 168.479 295.646C172.195 292.883 176.054 289.174 180.433 287.518C175.957 297.629 174.328 308.319 173.347 319.277C172.325 330.697 172.288 341.857 172.552 353.296C172.808 364.397 172.44 375.48 174.269 386.501C175.148 391.792 176.486 396.954 177.177 402.281C177.498 404.758 178.444 411.62 181.751 412.047C183.83 412.315 185.149 410.275 186.898 412.381C188.162 413.904 188.337 415.967 188.939 417.756C189.591 419.7 191.657 420.695 191.307 422.85C191.133 423.919 190.591 424.232 191.376 425.205C191.828 425.764 192.979 426.512 193.557 427.168C193.562 426.819 193.34 425.945 193.552 425.663C193.838 425.282 194.416 425.632 194.774 425.298C194.412 425.635 193.93 425.434 193.68 425.786C193.111 426.59 193.923 428.128 194.212 428.874C194.926 430.712 195.877 432.286 197.07 433.858C198.201 435.35 199.183 437.286 200.503 438.605C201.817 439.916 203.439 440.399 204.615 441.962C205.631 443.312 206.315 444.84 207.774 445.783C209.429 446.852 210.285 447.769 211.462 449.329C214.049 452.754 218.845 454.777 222.477 456.947C226.366 459.272 230.801 461.215 235.421 460.895C236.12 460.846 236.871 460.674 237.568 460.807C238.77 461.036 238.58 461.52 239.334 462.094C240.456 462.948 241.734 462.869 243.182 462.978C247.909 463.333 252.829 463.412 257.512 464.074C259.821 464.401 266.641 466.575 267.548 463.309C270.735 465.599 273.759 464.33 277.266 463.539C280.737 462.756 284.981 463.742 288.084 461.694C289.691 460.634 289.897 460.265 291.933 460.172C293.642 460.094 295.374 460.135 296.966 459.409C298.525 458.699 299.256 458.128 301.004 457.844C303.035 457.514 304.659 456.622 306.536 455.824C310.242 467.99 316.462 478.939 317.801 491.775C318.479 498.268 318.029 504.385 316.93 510.802C316.456 513.569 316.079 516.161 314.55 518.572C312.972 521.062 310.777 523.259 308.611 525.239C304.382 529.108 299.526 532.198 294.547 535.002C289.304 537.955 283.988 540.93 278.424 543.234C272.754 545.583 267.182 548.005 261.609 550.576C255.654 553.323 249.871 554.653 243.438 555.715C241.82 555.982 240.221 556.304 238.645 556.757C237.393 557.116 235.422 558.044 234.142 557.25C232.598 556.294 231.946 552.745 231.267 551.112C230.091 548.287 229.203 545.082 227.459 542.542C226.859 541.667 226.552 541.14 226.204 540.173C225.822 539.109 225.699 538.095 224.391 537.709C224.163 538.736 223.515 540.585 224.968 541.053C223.847 540.692 223.888 539.98 224.391 537.709ZM194.291 472.443C194.14 472.213 193.99 471.982 193.839 471.751C194.395 471.527 194.485 471.696 194.818 472.138C194.642 472.24 194.466 472.341 194.291 472.443ZM156.505 387.156C155.953 386.5 155.998 386.67 156.361 386.155C157.011 386.435 157.06 386.769 156.505 387.156ZM156.906 388.455C156.65 388.296 156.652 388.138 156.911 387.983C157.186 388.143 157.184 388.301 156.906 388.455ZM156.382 391.779C156.463 392.256 156.7 392.573 157.036 392.788C156.7 392.574 156.463 392.256 156.382 391.779ZM152.62 381.963C152.552 382.387 152.485 382.81 152.416 383.233C152.551 382.395 152.694 381.592 152.565 380.74C152.713 381.718 152.438 381.762 153.168 382.567C152.986 382.366 152.802 382.165 152.62 381.963ZM257.668 460.46C257.668 460.856 257.708 461.265 257.728 461.659C257.708 461.26 257.688 460.86 257.668 460.46ZM269.271 462.117C268.622 462.369 268.111 462.92 267.548 463.306C267.645 462.97 268.949 462.242 269.271 462.117ZM477.048 518.866C475.914 518.357 474.532 517.252 475.456 515.894C474.113 515.686 474.126 514.347 473.754 513.324C473.136 511.62 472.051 510.184 471.159 508.625C474.501 507.122 478.211 506.812 481.774 506.148L477.048 518.866ZM474.216 523.038C475.207 521.679 476.115 520.263 477.048 518.866C476.731 520.135 474.972 522.001 474.216 523.038ZM437.517 444.859L437.86 444.566C437.537 444.59 437.424 444.688 437.521 444.859H437.517ZM426.805 421.141C425.537 420.26 424.559 419.083 423.816 417.692C424.559 419.082 425.537 420.259 426.805 421.141ZM424.847 414.506C424.365 414.451 423.644 414.371 423.179 414.603C423.488 414.449 424.031 414.437 424.847 414.506ZM433.12 428.193C432.769 428.047 432.772 427.604 432.527 427.404C432.231 427.162 431.774 427.191 431.575 427.021C430.862 426.412 431.048 426.757 430.955 425.57C430.837 424.08 429.938 423.242 429.622 422.037C429.226 420.526 429.795 419.763 428.575 418.535C427.105 417.057 425.204 415.772 424.698 413.589C424.467 412.594 424.798 411.73 424.799 410.749C424.8 410.032 424.086 408.59 424.395 407.947C424.94 406.816 428.297 406.686 429.461 406.416C434.97 405.141 440.482 403.878 445.993 402.61C442.489 411.486 438.718 420.403 433.12 428.193ZM435.167 441.148C435.242 441.249 435.31 441.339 435.376 441.423C435.17 441.154 434.967 440.882 434.766 440.609C434.917 440.808 435.049 440.988 435.167 441.148ZM424.81 543.329C425.031 540.525 426.065 537.87 426.667 535.141C427.346 532.072 427.589 528.942 427.583 525.804C427.571 519.831 426.95 513.843 426.604 507.881C425.89 495.574 423.891 483.366 422.055 471.189C420.302 459.567 418.001 448.107 412.698 437.521C410.3 432.735 407.211 427.921 405.9 422.684C405.607 421.515 405.65 420.2 405.258 419.07C404.828 417.826 403.969 417.226 403.203 416.234C401.41 413.915 400.361 410.794 399.078 408.166C397.893 405.742 396.917 403.162 395.537 400.841C394.984 399.91 394.386 399.093 393.581 398.371C393.006 397.856 391.792 397.375 391.447 396.671C390.745 395.245 392.644 394.137 393.597 393.079C395.882 390.543 397.953 387.77 400.12 385.13C401.738 393.571 403.378 401.825 406.656 409.807C409.827 417.527 413.222 425.117 416.931 432.594C424.156 447.154 431.243 461.791 438.09 476.525C439.694 479.975 441.584 483.107 443.426 486.42C445.485 490.124 447.205 494.026 449.19 497.774C452.973 504.917 456.121 512.386 459.991 519.471C463.832 526.505 468.536 532.935 472.806 539.697C473.908 541.441 477.933 546.008 477.287 548.207C476.995 549.198 476.07 549.186 475.211 549.346C472.949 549.771 470.626 549.907 468.358 550.315C463.937 551.111 459.659 552.432 455.202 553.15C451.344 553.772 447.427 554.036 443.708 555.31C441.515 556.061 439.504 556.122 437.237 556.49C435.115 556.835 433.055 557.54 430.973 558.061C426.369 559.213 421.662 559.878 417.007 560.79C420.346 555.363 424.294 549.89 424.81 543.329ZM415.09 470.401C416.087 476.431 417.085 482.46 418.082 488.489C412.883 486.493 407.346 485.026 402.715 481.816C406.214 477.383 410.826 474.039 415.09 470.401ZM397.76 421.893C399.813 422.63 399.299 423.508 398.379 425.32C397.446 427.158 396.587 428.947 395.851 430.886C393.919 435.965 392.261 441.156 390.545 446.311C388.928 451.17 387.288 456.027 385.758 460.914C385.572 461.509 385.143 464.046 384.231 463.985C383.199 463.917 382.24 459.442 381.938 458.606C380.125 453.588 377.993 448.668 375.549 443.923C374.801 442.471 373.051 440.382 373.235 438.627C373.411 436.944 375.187 436.129 376.447 435.34C380.927 432.54 385.416 429.749 389.87 426.905C391.405 425.924 392.87 424.919 394.294 423.789C395.016 423.215 396.694 421.51 397.76 421.893ZM240.961 595.861C241.961 598.016 242.91 600.211 243.99 602.326C244.598 603.518 246.117 605.465 245.294 606.842C244.541 608.102 242.471 607.877 241.23 607.995C238.89 608.218 236.554 608.56 234.222 608.852C236.468 604.522 238.714 600.192 240.961 595.861ZM239.829 576.903C240.068 577.264 239.865 577.909 240.056 578.268C239.864 577.91 240.068 577.264 239.829 576.903ZM252.489 604.607C251.942 604.06 252.555 602.666 252.517 602.025C252.429 600.515 252.066 600.989 251.078 600.251C249.159 598.817 252.142 597.738 250.997 595.766C250.793 595.414 250.182 595.35 250.026 594.989C249.891 594.68 249.978 594.318 249.867 594.024C249.545 593.178 249.272 592.192 248.939 591.302C248.412 589.896 247.677 586.728 245.566 587.154C247.492 583.145 249.417 579.137 251.343 575.129C255.688 586.236 260.463 597.339 267.616 606.969C262.61 606.969 257.58 607.23 252.596 606.636C253.551 605.981 252.485 605.384 252.489 604.607ZM319.063 594.669C313.278 598.857 307.63 603.234 302.155 607.821C299.791 601.16 299.585 594.023 299.286 587.036C305.534 590.425 312.637 591.696 319.063 594.669ZM366.427 573.06C364.697 573.254 363.282 572.295 361.758 571.674C359.967 570.945 358.084 570.708 356.189 570.395C352.172 569.732 348.163 569.02 344.148 568.352C350.02 560.86 355.892 553.367 361.764 545.875C361.747 555.149 364.717 564.033 366.427 573.06ZM390.298 546.518C391.423 548.675 392.553 550.83 393.687 552.982C394.42 554.372 395.126 556.902 396.249 557.999C397.619 559.338 399.154 558.155 398.809 556.459C398.437 554.622 396.803 552.502 395.912 550.897C394.971 549.204 393.591 548.305 395.407 547.199C396.9 546.289 398.959 545.735 400.629 545.279C405.552 543.931 410.707 543.954 415.768 544.138C413.934 548.3 411.609 552.307 409.102 556.099C408.027 557.725 406.828 559.188 405.424 560.542C404.328 561.599 403.931 562.991 402.882 564.028C401.678 565.218 399.865 565.56 398.282 565.945C396.407 566.402 394.754 567.087 392.945 567.75C391.017 568.456 388.76 568.198 386.979 569.022C385.306 569.795 383.935 570.423 382.078 570.84C378.4 571.667 375.127 573.813 371.458 574.49C369.683 574.817 369.702 574.465 369.165 572.726C368.706 571.234 368.52 569.71 368.251 568.178C366.617 558.845 365.245 549.471 363.623 540.136C359.417 544.974 355.666 550.19 351.453 555.017C349.34 557.436 347.065 559.703 344.903 562.074C343.582 563.521 340.824 565.757 340.818 567.917C340.809 571.026 345.874 571.808 348.148 572.18C354.053 573.148 360.11 573.344 365.554 576.115C363.89 577.967 361.261 578.359 359.028 579.151C356.002 580.224 353.039 581.5 350.051 582.672C348.541 583.265 347.037 583.995 345.485 584.46C343.842 584.952 342.133 584.796 340.499 585.243C339.225 585.591 338.189 586.431 336.969 586.895C335.575 587.426 334.224 587.422 332.762 587.608C329.637 588.005 326.832 589.185 323.943 590.356C321.079 591.516 318.682 591.223 315.822 590.218C309.694 588.064 303.358 586.368 297.386 583.796C296.573 589.912 296.274 596.831 297.952 602.837C298.558 605.01 300.447 607.83 298.975 609.994C297.785 611.744 294.894 613.018 293.226 614.271C288.15 618.085 283.135 622.192 277.438 625.06C274.641 626.468 271.783 627.379 268.685 627.835C267.645 627.988 265.427 628.618 264.592 628.128C264.41 628.021 264.501 627.447 264.299 627.327C263.588 626.903 263.363 626.877 262.517 626.756C264.138 624.647 261.594 624.654 260.639 623.291C264.22 620.421 258.212 617.444 257.321 614.987C259.477 615.211 258.79 613.672 258.03 612.404C256.921 610.559 255.203 610.602 253.169 610.147C254.697 610.488 256.165 611.04 257.744 611.087C259.267 611.132 260.792 610.767 262.299 610.585C264.067 610.371 269.05 610.9 270.027 609.144C271.031 607.34 268.412 604.345 267.522 602.905C265.67 599.905 263.588 597.074 261.93 593.955C258.779 588.026 256.091 581.749 253.603 575.517C252.408 572.521 250.892 571.144 248.841 574.487C247.33 576.95 246.847 579.981 244.908 582.193C243.588 580.728 243.435 579.537 242.805 577.722C242.105 575.707 240.812 574.024 239.952 572.098C238.084 567.919 243.162 568.94 245.751 568.65C250.033 568.17 253.87 566.313 257.889 564.901C262.184 563.394 266.382 561.773 270.538 559.91C278.795 556.208 287.238 552.838 294.924 548.007C301.98 543.573 309.542 539.54 315.299 533.392C318.418 530.06 320.788 526.231 322.292 521.919C323.108 519.582 323.665 517.189 324.33 514.809C324.908 512.745 325.881 510.577 325.703 508.391C325.71 508.511 325.718 508.63 325.726 508.75C328.327 506.895 327.493 503.775 327.441 501.076C327.432 500.596 327.231 499.939 327.486 499.485C327.81 498.909 328.431 499.474 328.705 498.702C328.985 497.917 327.826 496.545 327.614 495.799C327.979 495.986 328.344 496.171 328.71 496.354C329.104 493.979 329.727 491.656 329.652 489.231C329.577 486.82 328.999 484.384 328.499 482.034C328.033 479.845 327.532 477.641 326.934 475.483C326.812 475.044 326.956 474.391 326.525 474.083C325.804 473.57 324.889 474.3 324.732 475.024C324.885 474.317 325.227 474.091 325.225 473.317C325.224 472.535 324.899 471.653 324.765 470.879C324.405 468.781 324.023 466.689 323.605 464.602C323.237 462.766 322.916 460.895 322.434 459.086C322.272 458.476 321.929 457.827 321.893 457.192C321.839 456.252 322.08 456.392 322.38 455.704C322.455 455.529 322.847 455.318 322.954 455.085C323.144 454.674 322.776 454.037 322.983 453.613C323.248 453.072 323.658 452.919 324.187 452.725C325.895 452.101 326.516 452.565 327.891 451.125C329.011 449.952 330.5 449.528 331.887 448.665C333.545 447.632 334.925 447.015 336.419 445.646C337.989 444.207 339.781 442.936 341.191 441.334C342.157 440.238 342.453 438.289 343.701 437.499C344.459 437.017 345.452 437.044 346.251 436.537C347.063 436.024 347.784 435.253 348.562 434.686C350.496 433.278 352.542 432.025 354.51 430.665C362.393 425.213 370.058 419.193 376.808 412.373C380.211 408.935 383.406 405.289 386.639 401.692C386.979 401.314 388.976 398.456 389.739 398.602C390.578 398.763 391.271 402.374 391.645 403.144C393.519 407.003 395.239 410.79 396.686 414.842C397.248 416.417 397.938 417.349 396.721 418.491C395.229 419.892 392.774 420.798 390.997 421.838C386.745 424.328 382.484 426.808 378.256 429.344C376.003 430.696 370.539 432.738 369.757 435.532C368.755 439.109 372.862 444.092 374.361 447.059C376.447 451.188 377.975 455.493 379.505 459.846C380.148 461.672 382.226 469.52 385.156 468.813C386.654 468.451 387.233 466.596 387.715 465.342C388.524 463.239 389.308 461.125 390.069 459.005C393.787 448.631 397.12 438.123 401.225 427.891C404.585 433.919 407.278 440.315 410.114 446.599C411.35 449.338 412.264 452.045 412.858 454.993C413.43 457.837 414.509 461.366 414.36 464.286C414.063 470.095 390.386 478.767 401.177 485.772C405.893 488.832 412.032 489.338 416.807 492.224C419.334 493.751 419.252 496.303 419.167 498.942C419.061 502.24 419.315 505.56 419.497 508.853C419.894 516.003 421.124 523.676 419.623 530.735C419.128 533.064 418.987 536.088 418.155 538.293C417.037 541.255 412.534 540.167 409.999 540.108C407.492 540.05 387.547 541.242 390.298 546.518ZM481.369 536.801C482.293 536.228 482.328 536.45 481.624 537.302C481.539 537.135 481.453 536.968 481.369 536.801ZM487.96 546.299C487.469 546.979 486.5 547.01 486.038 546.877C486.5 547.009 487.468 546.979 487.96 546.299ZM210.727 384.628C217.336 378.637 225.443 374.313 232.431 368.745C240.003 362.712 247.903 357.12 255.803 351.529C271.536 340.4 286.943 328.895 302.906 318.088C318.7 307.394 335.131 297.761 351.793 288.493C359.461 284.227 366.596 278.977 374.533 275.237C378.694 273.275 382.817 271.237 387.026 269.375C389.064 268.473 390.251 268.137 391.787 269.972C392.877 271.275 393.63 272.856 394.592 274.253C397.426 278.369 400.339 282.394 403.876 285.939C405.423 287.489 410.633 292.788 413.056 290.529C414.023 289.628 414.162 287.773 414.536 286.559C415.312 284.037 416.205 281.536 417.076 279.045C418.85 273.97 420.902 269 422.86 263.994C426.957 266.055 431.213 267.744 434.775 270.707C438.194 273.55 441.326 276.575 444.383 279.79C445.589 281.059 445.913 281.096 445.27 282.641C444.975 283.349 444.507 283.653 444.901 284.492C445.219 285.172 446.247 285.235 446.231 286.19C446.215 287.126 444.583 288.568 443.882 289.048C441.983 290.348 439.526 291.157 437.451 292.156C435.146 293.266 429.022 294.943 428.306 297.812C427.789 299.881 429.76 301.158 431.186 302.253C433.099 303.722 435.05 305.146 436.92 306.672C440.659 309.724 444.033 313.255 446.925 317.117C449.597 320.683 451.401 324.763 453.95 328.378C454.794 329.576 456.698 332.237 458.327 330.799C459.662 329.621 459.745 326.024 460.1 324.397C461.28 318.991 462.59 313.494 464.49 308.292C469.417 316.288 472.916 324.765 476.662 333.353C480.561 342.292 484.717 351.11 488.504 360.099C489.444 362.328 492.667 366.614 490.845 368.884C489.968 369.977 488.376 370.579 487.228 371.343C485.32 372.614 483.497 374.043 481.661 375.412C478.087 378.074 473.427 380.711 470.598 384.194C467.999 387.393 471.594 390.359 474.18 392.035C478.09 394.569 482.738 395.555 487.097 397.025C491.875 398.636 496.513 400.961 501.561 401.627C501.403 399.475 501.406 397.503 499.317 396.343C496.919 395.013 493.963 394.529 491.367 393.709C485.438 391.836 479.604 389.594 473.817 387.329C479.945 381.657 486.45 376.405 493.121 371.389C499.469 385.63 501.694 401.213 507.983 415.427C514.273 429.646 520.445 444.137 523.482 459.479C522.81 458.963 522.138 458.446 521.466 457.93C515.663 465.946 514.191 476.365 507.679 483.942C506.654 479.072 503.859 475.077 501.465 470.819C500.35 468.836 497.839 464.67 499.497 462.433C500.54 461.025 503.497 460.901 505.067 460.518C507.709 459.873 510.229 458.808 512.736 457.767C514.48 457.043 516.592 456.591 518.214 455.633C519.497 454.877 520.751 453.026 518.484 453.03C516.532 453.034 514.211 454.362 512.376 454.952C509.704 455.811 507.012 456.609 504.295 457.313C502.542 457.767 500.621 457.807 498.911 458.365C496.65 459.102 496.426 460.807 496.626 462.992C497.068 467.802 499.261 471.9 501.729 475.956C503.003 478.05 504.248 480.116 504.984 482.471C505.467 484.019 505.711 486.096 507.235 487.033C510.791 489.219 513.995 480.17 515.047 478.05C518.024 472.058 520.822 465.977 523.694 459.935C525.13 461.145 525.467 463.139 526.012 464.83C526.618 466.71 527.277 468.575 527.908 470.447C528.642 472.627 529.29 474.863 530.139 477.003C530.692 478.396 531.757 479.926 531.562 481.483C531.328 483.345 529.428 484.962 528.325 486.367C527.125 487.896 526.034 489.511 524.908 491.094C522.334 494.714 519.669 498.276 517.215 501.98C514.746 505.703 512.703 509.681 510.286 513.435C507.979 517.016 505.448 520.453 502.978 523.922C500.621 527.232 498.833 530.756 496.644 534.148C494.083 538.114 491.042 541.796 488.236 545.588C488.236 545.248 487.133 544.584 486.902 544.275C486.403 543.611 486.794 543.182 485.831 543.012C484.897 542.847 484.834 543.996 483.84 543.05C483.239 542.478 483.305 541.434 483.538 540.879C483.846 540.151 484.432 540.389 484.359 539.419C484.333 539.08 483.756 538.793 483.636 538.486C483.438 537.98 483.595 537.377 483.474 536.862C483.007 534.874 481.003 533.603 479.78 535.625C479.641 535.159 479.502 534.692 479.364 534.227C479.751 534.258 480.14 534.29 480.529 534.322C480.245 532.625 480.59 530.94 479.979 529.451C479.43 528.114 478.841 527.283 479.245 525.859C479.679 524.328 480.758 522.246 481.44 520.557C482.326 518.363 483.106 516.125 483.873 513.889C484.95 510.754 487.233 506.035 485.092 502.891C484.034 501.336 482.738 501.437 481.062 501.835C478.7 502.396 476.328 503.055 474.004 503.757C472.478 504.218 470.605 504.996 469.056 504.187C467.435 503.339 466.724 500.771 466.081 499.225C465.089 496.84 464.159 494.476 462.891 492.218C461.824 490.319 461.099 488.147 459.68 486.499C458.537 485.171 457.424 483.805 457.107 482.025C456.999 481.42 457.255 480.663 456.937 480.099C456.579 479.465 455.795 479.356 455.407 478.592C454.494 476.799 455.222 474.88 453.087 473.624C452.266 473.141 449.121 472.263 451.818 471.478C450.622 468.324 449.174 465.276 447.745 462.223C447.03 460.699 446.313 459.175 445.636 457.633C445.315 456.901 445.083 455.89 444.662 455.222C444.334 454.7 443.865 454.526 443.563 454.093C442.845 453.066 443.061 452.442 442.765 451.263C442.448 449.997 441.427 448.959 440.698 447.915C438.712 445.071 437.988 441.726 436.995 438.452C436.561 437.02 435.784 435.386 435.61 433.893C435.452 432.53 435.87 432.263 436.67 430.974C438.596 427.875 440.427 424.717 442.084 421.466C443.48 418.728 444.607 415.876 445.941 413.112C447.082 410.749 448.544 408.494 449.241 405.94C449.84 403.739 449.743 401.317 447.995 399.643C445.672 397.416 442.258 398.916 439.605 399.629C436.232 400.534 432.86 401.442 429.489 402.354C427.851 402.797 423.409 405.074 421.946 403.527C421.35 402.896 421.501 401.839 421.416 401.05C421.29 399.882 420.962 398.965 420.451 397.901C419.886 396.725 419.148 395.645 418.787 394.378C418.461 393.238 418.642 392.189 417.81 391.292C417.025 390.444 416.894 390.887 416.828 389.586C416.765 388.377 417.023 387.636 416.407 386.424C415.846 385.321 414.99 384.386 414.51 383.237C414.138 382.344 414.257 381.657 414.113 380.708C413.734 378.217 410.997 375.672 411.477 373.139C411.914 370.83 414.579 369.672 414.888 367.144C415.666 360.755 408.171 365.043 405.868 366.783C405.138 367.334 404.312 368.418 403.283 368.156C402.481 367.952 402.263 366.781 401.53 366.547C399.503 365.9 400.45 369.923 399.912 371.136C398.683 373.909 395.717 376.064 393.743 378.304C391.314 381.06 389.134 384.029 386.778 386.847C386.03 387.74 383.741 391.361 382.324 391.587C380.017 391.955 383.088 388.224 383.467 387.643C385.159 385.05 386.211 381.949 387.379 379.101C388.713 375.846 390.242 372.695 391.814 369.549C393.319 366.539 394.843 363.534 396.149 360.43C396.972 358.475 398.961 355.295 398.574 353.094C398.146 350.664 395.561 350.824 393.608 351.055C390.368 351.44 387.131 351.979 383.908 352.488C375.812 353.766 367.584 354.373 359.566 356.058C358.122 356.361 350.794 357.342 351.684 359.346C352.357 360.86 358.262 359.049 359.33 358.897C363.256 358.337 367.185 357.853 371.131 357.471C375.312 357.067 379.481 356.67 383.619 355.929C387.689 355.2 391.709 353.795 395.853 353.555C393.661 360.787 389.395 367.463 386.418 374.403C384.949 377.829 383.383 381.196 381.821 384.58C381.095 386.15 380.299 389.353 378.379 389.854C376.224 390.417 374.149 387.357 373.006 385.937C370.761 383.148 368.897 380.112 367.105 377.019C366.097 375.278 357.529 359.145 355.733 360.263C355.068 360.677 367.548 381.724 368.897 383.668C370.915 386.579 373.92 391.647 377.542 392.738C378.247 392.951 380.258 392.68 380.369 393.564C380.476 394.423 378.048 395.278 377.513 395.607C373.936 397.803 371.024 401.168 367.988 404.023C364.529 407.276 360.714 410.049 356.879 412.835C355.434 413.884 353.982 414.915 352.642 416.097C351.572 417.043 350.297 418.579 348.87 418.961C347.538 419.318 347.225 418.688 346.568 417.609C345.313 415.548 344.014 413.512 342.744 411.461C337.763 403.421 332.363 395.985 325.425 389.492C324.578 388.701 323.301 387.53 322.568 388.928C321.608 390.757 323.586 391.392 324.67 392.125C328.241 394.538 331.125 398.877 333.681 402.279C336.648 406.23 339.317 410.371 341.953 414.546C343.214 416.545 346.745 419.721 343.452 421.304C339.928 422.998 335.382 423.055 331.635 424.223C327.158 425.618 322.918 427.661 318.433 429.06C314.594 430.257 310.673 431.021 306.799 432.051C305.83 432.308 303.742 432.739 303.377 433.89C302.954 435.228 304.246 435.411 305.233 435.445C308.635 435.565 312.713 434.516 315.955 433.688C318.564 433.021 321.154 432.21 323.707 431.358C325.378 430.8 326.666 429.663 327.621 431.525C324.795 432.764 322.235 434.194 319.352 435.243C318.334 435.614 317.763 436.416 316.856 436.98C315.585 437.768 313.985 438.056 312.596 438.595C309.609 439.754 306.826 441.343 303.769 442.338C300.534 443.393 297.178 444.027 293.925 445.024C291.401 445.797 289.428 447.295 286.714 447.41C285.28 447.471 283.817 447.291 282.388 447.512C281.093 447.712 280.004 448.477 278.736 448.667C277.83 448.802 276.506 448.646 275.614 448.572C275.204 448.538 274.911 448.636 274.477 448.592C274.158 448.56 273.788 448.064 273.415 448.006C272.137 447.809 270.489 448.498 269.162 448.491C267.751 448.484 266.331 448.327 264.926 448.203C262.282 447.971 259.367 447.809 257.072 446.375C254.913 445.025 252.726 445.66 250.347 444.673C247.777 443.607 245.37 444.486 242.852 443.672C241.812 443.335 241.378 443.697 240.322 443.629C239.035 443.546 237.559 441.942 236.392 441.38C230.742 438.665 225.59 435.692 221.136 431.196C219.26 429.303 217.863 427.005 215.422 425.853C213.104 424.758 212.494 422.454 210.794 420.585C209.217 418.848 202.733 413.461 204.776 411.018C205.46 410.199 207.171 409.907 208.13 409.533C209.672 408.93 211.182 408.235 212.709 407.595C216.187 406.138 219.714 404.849 223.313 403.72C222.062 407.416 220.957 411.196 219.487 414.812C219.052 415.878 218.113 417.25 218.213 418.46C218.337 419.947 219.709 420.359 220.442 421.502C221.612 418.437 222.703 415.338 223.912 412.29C224.91 409.773 226.41 406.937 226.232 404.146C225.794 397.261 218.379 401.774 214.974 403.248C212.28 404.415 209.578 405.568 206.883 406.733C205.34 407.4 203.07 408.757 201.357 407.966C199.183 406.963 199.242 403.836 199.791 401.918C200.684 398.799 200.306 397.851 197.701 395.878C202.049 392.136 206.475 388.481 210.727 384.628ZM382.703 253.835C383.288 255.363 385.765 259.531 384.673 260.905C384.077 261.656 381.52 262.272 380.626 262.669C378.919 263.427 377.212 264.185 375.504 264.943C377.905 261.241 380.304 257.538 382.703 253.835ZM419.411 263.544C417.499 268.525 415.791 273.57 414.198 278.66C413.633 280.464 412.611 287.729 409.903 287.346C408.465 287.143 407.016 285.224 406.013 284.293C404.355 282.753 402.831 281.141 401.377 279.403C398.287 275.711 394.964 272.03 392.762 267.712C401.171 264.172 410.423 263.857 419.411 263.544ZM452.692 290.776C454.563 293.719 456.377 296.713 458.262 299.654C457.042 297.752 455.862 295.82 454.635 293.923C453.463 292.111 453.581 291.818 451.481 292.522C452.44 294.986 452.868 297.467 455.327 298.883C458.186 300.53 460.758 301.12 461.56 304.838C462.294 308.247 460.547 311.712 459.634 314.906C458.458 319.02 457.675 323.254 456.659 327.41C454.297 326.417 453.381 323.58 452.36 321.462C450.933 318.503 449.12 315.663 447.105 313.071C442.763 307.487 437.066 303.16 431.618 298.728C435.775 296.593 439.938 294.467 444.091 292.322C446.652 291.001 450.604 287.495 452.692 290.776ZM540.12 533.686C545.112 525.371 549.856 516.88 555.162 508.759C557.73 504.83 560.582 501.096 563.394 497.34C565.713 494.244 567.752 490.626 570.53 487.931C573.52 485.03 576.18 481.759 578.976 478.667C580.279 477.226 581.323 475.574 582.73 474.229C584.312 472.718 586.104 471.436 587.724 469.964C590.979 467.008 593.859 463.645 597.198 460.783C600.538 457.92 604.186 455.251 607.791 452.729C610.577 450.779 614.289 447.538 617.854 447.536C621.645 447.534 621.144 452.046 621.203 454.816C621.3 459.38 620.598 463.934 620.024 468.449C619.433 473.088 618.728 477.698 617.454 482.206C615.024 490.811 612.44 499.761 609.101 508.056C607.428 512.213 605.282 516.14 603.457 520.226C602.244 522.944 601.385 526.429 598.69 528.102C596.86 529.236 594.36 529.345 592.281 529.714C589.591 530.192 586.893 530.623 584.205 531.112C579.231 532.017 574.188 532.449 569.218 533.365C563.991 534.329 558.872 535.038 553.584 535.612C550.814 535.913 548.158 536.561 545.426 537.079C542.924 537.554 540.301 537.438 537.858 538.205C538.606 536.696 539.252 535.132 540.12 533.686ZM501.66 543.432C502.632 542.804 502.679 541.721 503.048 540.748C503.454 539.676 504.153 538.895 504.713 537.916C505.821 535.981 505.912 534.105 507.396 532.402C510.762 528.54 511.916 522.944 514.486 518.562C520.712 507.942 526.862 497.297 532.838 486.526C534.772 490.442 536.647 494.394 538.663 498.269C540.296 501.407 543.218 504.971 543.905 508.478C544.483 511.433 540.97 515.089 539.616 517.52C537.61 521.119 535.581 524.765 534.001 528.577C532.688 531.742 531.988 535.418 529.958 538.238C527.938 541.046 524.602 540.592 521.533 540.984C517.525 541.497 513.581 542.423 509.613 543.162C507.799 543.499 506.093 543.873 504.355 544.494C503.505 544.797 500.194 545.739 501.66 543.432ZM479.612 317.551C489.196 318.163 496.533 314.042 504.632 309.605C508.743 307.354 512.522 304.635 516.461 302.109C520.366 299.606 524.413 297.209 528.102 294.388C529.723 293.148 531.002 291.562 532.557 290.252C534.025 289.016 535.787 288.19 537.162 286.834C539.828 284.205 542.765 281.105 544.732 277.928C549.533 270.174 555.384 263.12 561.001 255.964C564.143 251.962 566.725 247.57 569.482 243.305C572.342 238.88 575.25 234.483 577.794 229.865C595.231 266.942 613.013 303.853 630.59 340.861C639.574 359.776 648.552 378.692 657.52 397.613C661.817 406.678 666.385 415.599 670.912 424.549C675.331 433.285 679.115 442.443 683.162 451.362C685.384 456.259 688.32 460.763 690.429 465.721C692.51 470.614 694.917 475.371 697.498 480.018C700.04 484.592 702.121 489.393 704.678 493.941C707.181 498.393 708.561 503.428 711.417 507.688C703.167 509.383 694.877 510.879 686.686 512.845C682.62 513.822 678.484 514.459 674.423 515.446C670.422 516.42 666.609 518.075 662.531 518.725C654.096 520.067 645.642 521.502 637.177 522.631C632.93 523.198 628.649 523.325 624.391 523.763C619.973 524.219 615.666 525.292 611.299 526.058C611.539 523.113 613.183 520.464 614.323 517.804C615.648 514.707 616.894 511.555 617.916 508.345C619.95 501.956 621.61 495.322 623.31 488.833C626.604 476.265 629.87 461.982 626.949 449.009C625.975 444.684 623.64 440.069 619.432 438.116C613.951 435.572 608.68 439.63 604.213 442.484C598.511 446.128 593.313 450.526 588.276 455.027C585.844 457.201 583.486 459.366 581.377 461.86C579.341 464.268 576.897 465.941 574.77 468.206C564.578 479.059 555.738 491.104 548.024 503.824C546.654 500.316 545.57 496.812 543.542 493.602C541.994 491.15 540.279 488.817 538.534 486.505C537.359 484.949 535.615 482.937 536.553 480.912C537.524 478.819 540.647 477.821 540.046 475.065C538.785 475.803 537.523 476.541 536.26 477.278C532.552 465.449 528.075 453.912 524.371 442.088C522.538 436.236 520.78 430.356 518.828 424.542C517.018 419.148 514.331 414.143 511.99 408.974C507.17 398.341 505.57 386.664 501.477 375.779C500.647 373.574 499.407 371.55 498.594 369.348C498.231 368.362 497.922 367.634 498.412 366.707C498.711 366.143 499.756 365.842 499.881 365.202C500.186 363.643 497.446 364.283 496.547 363.444C495.824 362.769 495.531 361.361 495.148 360.465C494.449 358.833 493.786 357.186 493.105 355.546C487.714 342.562 481.92 329.742 475.88 317.048C477.123 317.219 478.358 317.47 479.612 317.551ZM572.094 194.051C571.535 193.209 571.564 191.921 570.812 191.199C570.056 190.472 569.183 190.664 568.51 189.836C568.263 189.532 567.333 187.836 567.208 187.449C567.149 187.263 567.326 186.578 567.201 186.171C566.973 185.425 566.282 185.077 565.908 184.449C564.295 181.741 567.005 180.912 567.618 178.399C567.974 176.936 567.809 176.01 568.985 174.896C569.883 174.046 571.317 173.098 572.39 172.45C573.154 171.988 573.189 172.12 573.975 171.872C574.33 171.76 574.511 171.976 574.945 171.803C575.776 171.47 576.564 170.315 577.161 169.697C578.919 167.875 579.903 166.489 579.287 163.903C578.989 162.652 578.482 160.448 576.851 160.726C575.953 160.878 574.806 162.494 574.171 163.102C572.95 164.273 571.74 165.686 570.325 166.637C569.337 167.302 568.125 167.228 567.18 167.811C565.992 168.545 566.123 169.748 565.563 170.896C564.401 173.278 561.158 175.185 559.157 176.821C557.123 178.484 555.031 180.113 552.678 181.307C550.569 182.377 546.938 183.924 544.525 183.16C540.403 181.853 547.177 172.328 548.633 170.523C551.592 166.855 558.542 163.882 557.582 158.336C557.148 155.827 555.636 154.11 553.043 155.208C549.825 156.571 546.985 159.159 543.828 160.743C540.529 162.398 537.115 163.817 533.727 165.277C531.872 166.077 530.004 166.85 528.16 167.672C526.745 168.303 525.251 169.227 523.649 168.705C528.656 161.777 533.667 154.815 539.351 148.417C542.024 145.407 545.084 142.868 548.213 140.351C550.554 138.467 553.203 136.508 553.043 133.173C552.922 130.642 551.503 127.258 548.502 127.838C546.575 128.21 544.925 129.886 543.114 130.611C541.557 131.234 540.361 131.814 538.919 132.654C537.316 133.589 535.256 133.726 533.494 134.183C531.561 134.684 529.653 135.293 527.701 135.717C523.534 136.624 519.311 136.374 515.079 136.374C518.617 130.283 524.224 125.886 529.549 121.446C532.55 118.944 535.331 116.191 538.355 113.717C541.342 111.275 544.58 109.159 547.553 106.698L548.221 109.282C549.622 108.614 549.985 106.799 551.355 106.02C553.038 105.062 555.104 105.462 556.885 105.881C560.758 106.795 564.194 108.674 567.184 111.276C573.343 116.634 577.835 123.571 581.408 130.848C583.309 134.721 584.993 138.713 586.447 142.775C587.155 144.751 587.824 146.816 587.852 148.936C587.882 151.269 586.841 153.268 586.264 155.475C585.164 159.684 584.905 164.167 584.325 168.472C583.708 173.043 583.369 177.622 582.982 182.215C582.777 184.65 582.473 187.066 582.089 189.479C581.971 190.217 581.978 191.256 581.632 191.919C581.315 192.53 580.489 192.768 580.201 193.371C579.87 194.061 580.128 194.031 580.343 194.934C580.62 196.093 580.461 196.951 580.129 198.103C579.405 200.617 578.65 203.117 577.964 205.644C576.05 204.852 573.645 202.858 572.9 200.842C572.495 199.747 572.878 199.091 573.037 198.009C573.254 196.534 572.913 195.286 572.094 194.051ZM500.661 47.165C500.496 46.706 501.053 45.968 500.811 45.536C500.887 45.672 500.62 47.165 500.661 47.165ZM621.096 300.385C621.141 300.306 621.185 300.228 621.241 300.129C621.129 300.521 620.946 300.487 620.691 300.027C620.825 300.148 620.963 300.264 621.096 300.385ZM106.979 307.411C106.011 306.94 104.641 305.512 103.5 305.505C103.004 305.502 101.929 305.834 102.527 306.428C102.812 306.712 100.556 306.429 100.524 306.421C99.1844 306.087 97.8624 305.578 96.5574 305.129C94.2484 304.335 91.9584 303.487 89.6574 302.675C85.0354 301.043 80.7104 298.825 76.2084 296.911C67.5124 293.215 60.1344 288.098 52.7514 282.253C37.6074 270.262 27.9794 252.735 19.0694 235.963C28.1274 236.766 37.5264 237.148 46.2964 234.318C55.4214 231.374 62.7114 226.149 70.4754 220.758C70.9784 222.088 71.4824 223.42 71.9864 224.75C72.7164 223.316 73.4464 221.88 74.1764 220.446C87.5164 250.197 100.855 279.949 114.195 309.701C111.737 309.129 109.259 308.522 106.979 307.411ZM19.0234 261.816C21.4334 262.907 22.0104 263.981 22.0234 266.881C22.0104 263.983 21.4334 262.908 19.0234 261.816ZM11.3574 164.263C11.6654 163.137 11.9764 162.012 12.2864 160.887C12.4594 163.085 13.6944 163.875 11.0214 164.877C11.1334 164.672 11.2454 164.467 11.3574 164.263ZM13.3784 166.734C13.1394 167.115 13.0584 167.023 13.1354 166.458C13.2164 166.55 13.2974 166.642 13.3784 166.734ZM25.5154 136.584C30.9884 129.61 36.2974 122.51 42.3324 116.003C47.1084 110.855 52.5594 105.106 59.8044 103.851C59.2054 110.491 54.6344 115.862 51.0134 121.141C48.9874 124.094 46.9994 126.943 44.6244 129.629C42.4764 132.057 41.2804 134.758 42.6974 137.917C43.5464 139.81 45.3674 142.497 47.7284 142.175C49.1304 141.983 50.4244 140.611 51.5234 139.815C53.0914 138.678 54.7484 137.661 56.3694 136.604C59.4234 134.61 62.4864 132.649 65.5994 130.749C68.3914 129.046 71.3374 126.444 74.7374 126.193C73.4874 129.518 71.7574 132.62 70.1064 135.754C68.4224 138.949 66.9014 142.284 64.7264 145.189C62.6004 148.028 59.9024 149.866 57.2354 152.118C54.9564 154.041 55.1314 156.768 56.3774 159.304C57.8334 162.267 59.9954 163.927 62.6244 161.463C65.4664 158.8 68.1754 156.494 71.3834 154.276C74.0814 152.413 76.6614 151.279 79.6754 149.984C80.8764 149.468 83.3114 147.782 84.6774 148.501C86.5534 149.489 84.9394 154.315 84.5674 155.882C83.6984 159.545 82.3284 163.104 80.5024 166.396C77.3834 172.023 74.0684 177.863 68.7264 181.616C64.3704 184.675 54.2444 187.921 57.5674 194.791C59.0194 197.793 60.6524 200.726 62.1884 203.687C63.1414 205.525 66.4814 209.587 65.2704 211.788C64.4564 213.268 61.7104 214.296 60.3124 215.136C58.4124 216.277 56.4994 217.395 54.5574 218.463C50.9874 220.426 47.3284 222.246 43.5324 223.734C35.8204 226.754 27.3404 227.126 19.7154 230.383C20.1664 230.198 20.6214 230.024 21.0824 229.862C19.7544 229.632 19.2174 227.545 18.7504 226.493C18.5234 225.98 18.0364 225.286 17.9284 224.744C17.8024 224.114 18.2424 223.673 18.2034 223.314C18.1164 222.519 17.7184 222.672 17.4224 222.15C16.9104 221.248 17.1354 221.399 16.9954 220.414C16.8954 219.716 16.5504 219.205 16.3814 218.534C16.0784 217.334 16.4874 216.167 16.6974 214.988C13.4374 215.259 17.8044 211.426 17.4074 210.291C17.0304 209.215 15.7904 209.005 15.6144 207.686C15.4274 206.293 15.6104 204.784 15.4214 203.341C15.2304 201.878 14.9144 200.353 15.2204 198.888C15.4914 197.591 16.2384 196.69 15.3084 195.462C14.7384 194.708 13.6444 194.498 13.1264 193.674C12.3334 192.411 13.0194 191.051 14.3284 190.502C13.2124 189.86 12.4274 188.869 12.5224 187.523C12.6104 186.276 13.2104 186.211 13.9114 185.347C16.1364 182.602 11.4804 182.566 12.1094 179.67C12.4084 178.296 13.6594 177.218 14.1244 175.889C14.6184 174.48 14.8324 172.683 14.9044 171.204C14.9594 170.043 14.3394 169.304 14.2544 168.307C14.1604 167.182 14.9724 166.781 15.1544 165.79C15.3574 164.681 14.4124 163.536 14.6624 162.414C14.9154 161.279 16.0344 160.799 16.3674 159.619C16.7484 158.266 16.0634 157.32 16.1124 156.071C16.1844 154.217 16.9744 155.311 17.9374 154.547C18.5694 154.046 18.2264 153.488 18.3734 152.804C18.5634 151.926 18.7914 151.606 19.3374 150.891C20.0574 149.949 20.9114 149.134 21.4344 148.053C22.0484 146.782 22.2184 145.403 22.8754 144.169C23.8004 142.431 23.6424 141.876 22.7754 140.151C22.2744 141.316 21.1454 142.118 20.7894 143.36C21.4674 140.993 24.0234 138.487 25.5154 136.584ZM2.01739 195.412C1.60039 195.045 2.25439 194.915 2.43639 195.223C2.29639 195.286 2.15739 195.349 2.01739 195.412ZM122.305 1.158C122.021 1.232 121.73 1.265 121.447 1.334C121.725 1.266 122.047 1.257 122.305 1.158ZM305.134 128.596C305.493 121.981 305.4 115.097 307.829 108.825C308.585 106.872 309.449 103.879 311.64 103.101C314.678 102.024 319.332 103.422 322.493 103.618C329.037 104.024 335.553 103.29 341.963 101.989C345.393 101.294 348.58 99.769 351.888 98.672C355.235 97.562 358.498 96.351 361.617 94.686C362.911 98.538 365.353 102.011 368.21 104.871C370.745 107.407 374.347 109.554 371.981 113.426C369.86 116.899 368.848 120.598 367.152 124.261C365.243 128.387 362.221 131.905 359.487 135.493C359.149 134.332 359.072 133.178 359.097 131.975C357.209 132.386 354.295 134.758 353.338 132.099C352.993 131.136 353.668 129.135 352.263 128.954C350.149 128.681 350.019 132.559 350.24 133.732C350.747 136.421 352.463 137.754 354.82 138.86C347.612 142.777 341.431 148.162 334.011 151.8C330.31 153.615 326.074 154.294 322.035 155.007C319.479 155.458 316.799 155.35 314.405 154.278C305.495 150.292 304.683 136.939 305.134 128.596ZM769.178 531.714C766.984 528.484 766.582 524.501 765.958 520.749C765.25 516.495 764.273 512.319 762.635 508.32C761.143 504.678 759.383 501.058 757.457 497.625C756.911 496.65 756.249 495.335 754.974 495.236C753.547 495.126 752.909 496.546 751.968 497.319C750.641 498.41 748.869 498.683 747.277 499.228C745.311 499.901 743.407 500.746 741.429 501.392C737.663 502.623 733.521 502.743 729.643 503.599C727.82 504.001 725.991 504.381 724.165 504.775C722.943 505.038 720.855 506.017 719.61 505.811C716.98 505.376 715.071 499.207 714.17 497.043C712.699 493.501 710.478 490.254 709.146 486.69C707.755 482.972 706.535 479.303 704.847 475.691C703.087 471.925 701.237 468.189 699.576 464.378C698.942 462.925 698.497 461.315 697.621 459.981C696.675 458.54 695.463 458.268 695.07 456.506C694.943 455.941 694.955 454.963 694.541 454.51C693.818 453.72 693.563 454.457 692.87 454.208C692.148 453.948 692.284 454.221 692.029 453.524C691.983 453.398 692.382 453.056 692.354 452.857C692.306 452.511 692.08 452.202 692.016 451.873C691.729 450.397 692.139 449.357 691.49 447.859C690.667 445.962 690.015 443.992 689.299 442.049C686.444 434.291 682.253 427.202 678.824 419.783C678.41 418.887 677.69 418.227 677.376 417.278C677.101 416.445 677.315 415.449 676.908 414.651C676.457 413.768 675.723 413.812 675.139 413.171C674.639 412.622 674.592 412.113 674.43 411.39C673.647 407.882 671.638 404.99 670.693 401.516C670.158 399.546 669.08 398.109 668.087 396.359C666.923 394.311 666.16 392.044 665.19 389.901C664.285 387.899 663.372 385.868 662.348 383.924C661.406 382.135 660.828 381.879 659.453 383.52C658.377 381.964 657.196 380.634 656.461 378.878C655.836 377.383 654.827 377.318 653.391 376.376C654.308 376.978 654.932 377.781 655.881 376.767C656.311 378.501 658.455 376.863 658.091 375.48C657.687 373.947 655.64 373.671 654.378 373.232C654.997 371.611 655.999 373.054 655.974 371.227C655.952 369.708 654.459 367.925 653.784 366.65C651.922 363.134 650.478 359.373 648.904 355.723C647.323 352.057 645.894 348.306 644.102 344.735C643.363 343.261 642.61 341.698 641.691 340.325C641.295 339.733 640.857 339.054 640.257 338.638C639.887 338.38 638.833 338.291 638.624 337.896C638.204 337.102 639.114 335.645 638.987 334.649C638.791 333.119 637.967 331.336 637.321 329.962C635.651 326.418 634.042 322.805 632.29 319.302C630.592 315.905 628.771 312.659 627.415 309.098C626.721 307.273 625.779 305.685 624.898 303.953C624.202 302.585 623.803 301.094 622.595 300.054C622.7 300.79 622.694 301.536 622.754 302.276C622.685 301.44 622.91 300.336 622.397 299.612C621.784 298.747 620.569 298.942 619.852 298.18C620.433 298.797 621.304 299.122 622.139 299.142C620.461 294.661 619.176 289.699 616.127 285.905C615.736 285.418 615.212 284.616 614.665 284.328C614.332 284.152 613.122 284.245 612.968 284.074C611.988 282.984 613.582 281.01 613.26 279.704C612.918 278.321 611.58 277.071 611.092 275.641C610.324 273.388 609.76 271.884 608.338 269.998C607.444 268.811 607.139 267.42 606.615 266.015C605.701 263.565 604.756 261.121 603.728 258.717C601.787 254.179 599.217 250.03 597.104 245.591C596.118 243.52 595.633 241.16 594.471 239.183C593.577 237.661 592.155 236.56 591.459 234.911C590.609 232.894 590.202 230.749 589.284 228.732C588.639 227.315 587.945 225.937 587.362 224.495C586.575 222.548 585.105 218.138 582.196 219.73C583.24 216.233 584.422 212.742 585.325 209.207C585.564 208.27 585.58 207.058 586.261 206.309C586.975 205.524 587.4 205.661 587.897 204.663C589.232 201.986 588.514 197.572 588.735 194.683C589.007 191.104 589.635 187.564 589.714 183.969C589.793 180.387 589.776 176.867 590.014 173.288C590.234 169.986 590.455 166.705 590.109 163.42C589.784 160.327 592.098 158.415 592.715 155.45C593.383 152.241 592.983 148.802 592.519 145.591C590.819 133.823 585.482 121.371 578.137 111.995C572.54 104.849 562.152 95.66 552.383 100.001C551.04 100.598 550.38 101.23 549.054 100.276C547.994 99.513 547.916 98.291 546.393 98.214C544.912 98.139 543.382 99.506 542.189 100.226C540.537 101.222 538.821 102.117 537.13 103.046C534.037 104.746 531.285 106.669 529.093 102.828C528.5 101.79 528.02 99.356 526.844 98.843C525.886 98.426 525.437 99.371 524.797 98.487C524.716 98.585 524.635 98.683 524.553 98.781C525.048 98.181 524.506 97.581 524.608 96.936C524.564 96.709 524.52 96.483 524.476 96.256C524.729 96.036 524.95 95.789 525.139 95.514C525.256 94.532 524.374 93.234 523.946 92.416C522.55 89.747 521.635 86.871 520.237 84.209C518.57 81.036 517.314 77.838 515.885 74.565C514.404 71.17 512.28 68.067 510.708 64.701C507.462 57.746 504.493 50.654 501.169 43.737C500.482 42.305 496.764 32.022 494.283 33.178C494.846 30.664 493.176 29.157 491.739 27.24C490.881 26.095 490.364 24.956 489.692 23.72C489.13 22.685 488.234 21.95 487.66 20.951C487.148 20.06 487.231 19.163 486.948 18.209C486.627 17.124 485.945 16.42 485.264 15.546C483.64 13.46 482.416 11.05 480.263 9.427C478.927 14.757 481.998 20.063 483.995 24.803C486.432 30.59 488.593 36.497 490.903 42.336C495.461 53.863 500.618 65.14 505.995 76.304C508.811 82.149 511.795 87.918 514.376 93.872C515.413 96.262 516.468 98.567 517.752 100.837C519.165 103.335 519.858 106.099 521.057 108.687C521.921 110.552 523.595 112.449 522.936 114.629C522.299 116.736 519.436 119.333 517.873 120.823C514.31 124.219 509.494 125.222 508.149 130.398C506.878 135.291 507.506 142.246 511.725 145.704C516.117 149.305 524.005 147.274 528.938 146.594C525.919 151.107 522.8 155.555 519.83 160.101C517.082 164.309 514.683 168.75 515.373 173.938C517.048 186.526 533.351 175.608 539.175 172.816C537.632 177.878 536.588 185.018 540.027 189.63C542.526 192.983 547.733 192.673 551.299 191.738C554.026 191.024 554.819 191.276 556.445 193.762C557.828 195.878 559.441 197.537 561.163 199.394C565.257 203.805 567.757 208.512 570.407 213.828C571.868 216.761 572.728 218.734 571.199 221.92C569.832 224.769 568.222 227.603 566.589 230.308C563.476 235.467 559.357 239.937 555.805 244.786C548.606 254.617 542.356 265.033 534.108 274.093C525.965 283.036 515.511 289.725 505.62 296.587C500.466 300.162 495.526 303.962 489.74 306.49C486.803 307.774 483.762 308.8 480.704 309.755C479.25 310.21 477.774 310.611 476.327 311.088C475.507 311.358 474.194 312.101 473.317 311.705C472.681 311.419 472.037 309.394 471.779 308.901C471.123 307.651 470.484 306.403 469.705 305.225C468.075 302.757 466.201 300.464 464.577 297.987C460.979 292.501 457.669 286.809 453.711 281.567C449.977 276.621 445.746 272.034 441.364 267.659C437.154 263.457 432.564 259.566 426.962 257.378C421.331 255.178 415.449 254.808 409.477 255.255C403.856 255.676 398.726 257.434 393.327 258.904C391.421 259.422 388.872 260.252 387.078 259.053C386.203 258.468 385.808 257.469 385.178 256.669C384.534 255.849 383.407 255.215 382.961 254.271C382.238 252.735 383.586 250.777 383.837 249.199C384.336 246.051 383.865 242.741 383.17 239.663C380.245 226.697 376.151 214.145 374.153 200.953C373.687 197.882 373.121 194.744 373.03 191.636C372.971 189.699 373.919 187.805 373.825 185.962C373.731 184.123 371.811 183.551 370.266 184.546C368.602 185.618 368.604 188.15 368.504 189.894C367.729 203.414 370.798 216.324 374.083 229.308C374.881 232.461 375.63 235.624 376.456 238.77C377.172 241.498 377.979 244.263 376.896 246.995C375.919 249.457 374.28 251.692 373.147 254.095C371.95 256.633 370.975 259.781 369.126 261.933C367.395 263.948 365.698 264.385 366.479 267.479C366.656 268.18 367.136 268.814 366.912 269.523C366.596 270.53 364.408 271.484 363.577 272.019C358.079 275.557 352.205 278.479 346.6 281.834C344.162 283.294 341.751 285.331 339.119 286.391C336.587 287.41 334.457 288.432 332.18 290.005C326.996 293.584 321.532 296.773 316.209 300.143C310.718 303.619 305.238 307.113 299.788 310.653C294.674 313.975 289.905 317.946 284.607 320.963C279.307 323.983 273.865 326.877 268.503 329.803C267.279 330.471 266.218 331.161 264.801 331.158C263.706 331.157 262.856 330.757 261.765 331.173C259.211 332.146 256.803 335.017 254.69 336.708C249.647 340.746 244.168 344.148 238.738 347.628C236.118 349.307 233.578 351.091 231.12 352.999C229.012 354.633 227.076 356.589 224.757 357.932C222.324 359.341 220.212 360.453 218.09 362.371C215.881 364.368 213.62 366.286 211.28 368.129C208.828 370.059 206.336 371.938 204.02 374.032C201.903 375.946 200.107 378.187 197.954 380.06C195.81 381.925 193.442 383.462 191.562 385.624C189.524 387.968 188.012 390.713 186.338 393.315C186.338 393.039 185.086 392.156 184.945 391.952C184.267 390.978 184.47 389.83 183.943 388.788C182.132 390.626 183.588 395.072 183.716 397.282C183.444 392.582 183.62 387.866 182.997 383.19C182.383 378.583 181.465 374.023 181.368 369.362C181.269 364.648 181.584 359.922 181.729 355.211C181.79 353.192 181.938 351.18 182.34 349.196C182.506 348.379 182.918 347.512 182.978 346.685C183.059 345.555 182.683 345.443 182.247 344.447C181.568 342.897 182.188 342.713 182.981 341.444C183.909 339.961 182.985 339.486 182.546 338.041C181.981 336.173 183.67 335.737 183.666 334.058C183.664 333.363 183.014 332.676 183.017 332.02C183.025 330.619 183.656 331.394 184.116 330.539C184.571 329.692 183.331 329.007 183.027 328.099C182.746 327.267 182.764 326.576 183.168 325.786C183.275 325.576 183.543 325.343 183.62 325.139C183.785 324.708 183.685 324.641 183.77 324.326C184.481 321.684 185.599 319.148 186.452 316.483C187.223 314.07 186.628 311.565 186.684 309.099C186.732 306.98 187.791 305.329 188.216 303.305C188.685 301.074 187.282 300.171 186.392 298.347C185.354 296.22 185.54 293.468 186.442 291.332C186.779 292.441 187.117 293.549 187.453 294.658C187.702 293.793 188.168 292.85 188.079 291.927C187.978 290.873 187.408 290.77 187.078 289.974C186.494 288.567 187.157 289.192 187.709 287.922C187.993 287.27 187.65 286.396 187.696 285.706C187.754 284.82 188.12 284.109 188.293 283.258C188.572 281.891 188.308 280.873 189.245 279.749C190.088 278.736 191.368 278.063 192.377 277.234C194.257 275.691 196.037 273.989 197.855 272.371C200.395 270.109 203.842 268.268 203.692 264.527C199.852 265.937 197.064 269.183 194.029 271.77C190.647 274.652 186.771 276.874 183.335 279.688C176.015 285.684 168.061 290.984 159.904 295.778C155.847 298.162 151.728 300.433 147.624 302.734C143.907 304.817 140.394 307.367 136.366 308.837C132.707 310.171 128.104 311.803 124.271 310.294C122.75 309.695 121.235 308.62 120.627 307.057C120.117 305.742 120.62 303.687 119.33 302.732C118.834 302.363 117.858 302.746 117.679 301.95C117.539 301.324 118.683 300.639 118.773 300.016C118.995 298.472 117.125 295.813 116.534 294.384C116.196 293.567 115.916 292.498 115.229 291.886C114.975 291.66 114.47 291.647 114.297 291.413C114.089 291.13 114.273 290.888 114.133 290.627C113.713 289.84 113.838 289.277 113.12 288.516C112.346 287.695 111.275 287.142 110.379 286.468C110.42 286.427 111.132 286.885 111.213 286.93C111.129 285.639 110.435 284.518 110.249 283.255C110.054 281.93 110.476 280.78 109.823 279.541C109.158 278.281 107.856 277.408 107.133 276.165C106.395 274.896 106.098 273.39 105.503 272.049C104.371 269.501 102.515 267.91 102.021 265.124C101.91 264.498 101.956 263.948 101.571 263.401C101.242 262.935 100.587 263.023 100.314 262.463C99.9104 261.637 100.453 261.012 99.6964 260.171C98.2664 258.583 95.9084 259.083 97.1164 256.345C98.3404 253.568 97.5574 253.485 95.8544 251.375C94.1204 249.227 93.6574 246.008 92.8794 243.438C92.5734 242.424 92.3914 241.351 91.6324 240.61C90.3954 239.402 90.0304 240.161 90.6234 238.326C88.3614 238.44 88.2244 234.213 87.9514 232.591C87.7724 231.537 87.5394 230.088 86.7604 229.286C86.2234 228.733 85.0494 228.823 85.0254 228.806C84.5234 228.45 83.6304 226.65 83.5464 226.142C83.4514 225.562 84.0094 225.167 83.9124 224.473C83.8134 223.76 83.0754 223.048 82.6204 222.569C80.8344 220.691 77.8974 216.697 78.9784 213.888C83.5864 218.641 87.9954 223.583 92.6004 228.34C96.2524 232.114 100.269 235.493 105.37 237.07C111.148 238.855 117.46 239.123 123.469 238.925C126.62 238.822 129.738 238.161 132.897 238.323C136.168 238.49 139.253 238.325 142.471 237.61C143.855 237.302 145.225 236.725 146.636 236.596C147.724 236.497 148.786 236.69 149.873 236.499C152.628 236.016 155.111 234.269 157.556 233.008C162.864 230.27 167.906 227.187 172.422 223.249C181.11 215.675 186.764 205.485 192.186 195.484C198.302 184.203 203.714 172.722 210.498 161.796C213.845 156.405 217.096 150.9 220.99 145.877C224.579 141.246 228.968 137.44 233.706 134.027C238.173 130.809 242.739 127.047 248.258 125.899C251.25 125.275 254.328 125.061 257.342 124.549C260.572 124.001 263.609 123.623 266.817 124.521C269.661 125.316 272.439 126.346 275.281 127.153C278.376 128.032 281.593 128.457 284.495 129.923C287.087 131.234 289.391 133.046 291.912 134.483C294.167 135.768 297.547 136.412 298.745 138.918C299.956 141.451 299.783 144.549 300.759 147.197C301.874 150.224 303.442 153.05 305.27 155.703C308.33 160.145 312.325 164.011 317.912 164.657C324.581 165.428 331.259 162.914 337.328 160.446C343.597 157.898 348.597 153.196 354.692 150.335C354.692 152.541 354.968 154.737 354.737 156.941C354.482 159.371 353.808 161.754 353.246 164.124C352.143 168.779 351.028 173.467 349.122 177.873C347.282 182.129 344.692 185.874 342.034 189.645C339.474 193.277 337.068 197.114 333.987 200.339C328.52 206.062 320.727 209.481 312.969 210.657C305.001 211.865 295.99 211.597 289.73 206C283.687 200.596 278.974 193.599 277.584 185.52C275.966 176.116 276.333 166.452 276.939 156.972C277.246 152.169 277.687 147.37 278.48 142.62C279.167 138.503 281.076 134.116 279.584 130.01C279.241 129.062 279.089 128.148 278.143 128.095C276.497 128.004 275.112 130.469 274.452 131.595C272.245 135.363 271.656 139.603 270.878 143.83C268.999 154.058 268.61 164.657 269.211 175.012C269.509 180.13 269.699 185.328 271.113 190.289C272.521 195.228 274.658 200.041 277.065 204.567C276.08 204.372 275.532 204.935 275.823 205.905C276.247 205.479 276.671 205.052 277.096 204.626C281.963 210.881 287.706 218.395 295.542 220.983C300.146 222.502 304.578 223.749 309.477 223.609C314.303 223.471 318.781 222.148 323.226 220.346C327.247 218.715 331.4 217.302 334.748 214.446C338.166 211.532 340.96 207.658 343.676 204.106C349.556 196.414 354.508 188.029 357.404 178.745C358.828 174.178 359.435 169.519 360.194 164.815C360.57 162.484 360.933 160.143 360.953 157.777C360.97 155.855 360.479 153.979 360.493 152.065C360.518 148.433 364.038 147.147 367.202 146.686C371.275 146.092 373.341 149.699 375.447 152.569C378.255 156.396 380.952 160.271 383.479 164.29C384.596 166.068 385.231 168.396 386.418 170.052C387.243 171.202 388.666 171.774 389.626 172.96C392.549 176.569 395.62 180.463 397.976 184.46C400.237 188.296 403.535 191.733 406.434 195.12C409.636 198.86 413.148 202.32 416.356 206.053C418.879 208.991 422.238 210.698 424.791 213.559C427.376 216.456 431.605 218.242 434.747 220.567C436.564 221.91 438.337 223.317 440.051 224.788C441.747 226.243 443.143 228.132 444.921 229.465C451.466 234.37 458.01 238.829 466.552 239.133C468.404 239.199 469.988 238.571 471.751 238.47C473.661 238.361 475.466 239.297 477.491 239.125C482.001 238.741 486.732 237.725 491.062 236.429C499.799 233.814 509.025 230.638 516.466 225.23C520.215 222.505 523.227 219.086 526.345 215.693C527.996 213.897 531.868 209.665 529.073 207.083C526.709 204.9 522.4 211 520.913 212.402C517.642 215.489 513.681 217.611 509.538 219.295C505.354 220.995 501.009 222.252 496.753 223.753C492.291 225.326 487.955 227.111 483.221 227.684C480.795 227.977 478.355 228.131 475.925 228.384C473.44 228.642 470.933 229.333 468.437 228.966C463.898 228.299 459.038 227.756 454.985 225.476C447.101 221.04 441.106 213.469 433.902 208.052C430.279 205.328 426.37 203.034 422.959 200.025C419.437 196.92 416.449 193.253 413.406 189.693C406.702 181.85 400.115 173.915 393.653 165.87C390.783 162.297 387.56 158.824 384.973 155.041C383.935 153.523 383.151 151.809 383.442 149.929C383.788 147.688 385.245 145.816 385.52 143.532C386.043 139.186 383.784 134.935 382.01 131.11C381.322 129.626 380.339 127.942 381.521 126.463C382.7 124.988 384.626 123.838 385.935 122.407C389.082 118.967 392.157 115.458 395.049 111.8C396.339 110.169 397.71 108.562 398.754 106.756C400.031 104.547 400.556 102.035 401.288 99.613C404.128 90.214 405.139 80.53 404.038 70.757C403.031 61.808 402.363 51.708 398.361 43.519C394.532 35.684 388.361 29.474 381.773 23.917C377.975 20.714 374.123 17.573 370.286 14.42C366.557 11.356 362.512 9.447 358.436 6.969C350.345 2.051 341.481 1.266 332.199 2.036C327.379 2.435 322.536 2.268 317.87 3.753C313.441 5.162 309.346 7.562 305.454 10.057C297.651 15.061 289.974 20.275 282.087 25.152C266.13 35.02 246.081 43.205 227.17 38.435C217.81 36.073 208.527 32.327 200.014 27.786C191.473 23.23 183.524 18.007 174.455 14.475C169.795 12.661 165.054 11.056 160.423 9.164C158.424 8.348 156.388 7.161 154.224 6.859C153.435 6.749 152.372 7.047 151.643 6.68C150.994 6.353 151.22 5.961 150.709 5.629C149.642 4.933 147.773 5.054 146.458 4.564C145.238 4.109 143.025 2.479 141.702 2.647C140.99 2.737 140.724 3.441 139.944 3.414C139.227 3.389 138.561 2.568 137.961 2.252C135.97 1.201 133.495 0.946002 131.299 0.631002C127.043 0.0210017 123.266 -0.542998 119.156 0.955002C115.3 2.36 111.299 3.56 107.377 4.838C105.323 5.507 104.098 6.125 102.37 7.33C101.339 8.047 100.066 8.184 98.8734 8.678C95.4094 10.114 91.6804 13.276 90.1234 16.655C89.3284 18.381 88.2144 17.96 87.1984 19.213C86.1444 20.511 86.5614 22.381 85.2694 23.72C84.1994 24.83 83.8234 25.966 82.7154 27.095C81.2694 28.569 80.4784 30.583 79.6434 32.437C75.6144 41.379 72.8214 51.068 71.5684 60.8C70.9484 65.619 70.8964 70.409 71.2824 75.248C71.6444 79.797 71.4594 84.694 72.9824 89.052C73.1324 88.714 73.2774 88.374 73.4154 88.031C73.7254 88.446 74.4354 88.907 74.4434 89.483C74.4534 90.327 73.8964 90.79 73.2814 90.005C74.3734 93.864 75.9084 97.441 77.8844 100.947C78.7314 102.45 79.3444 102.82 80.7244 103.359C82.1174 103.902 81.7574 104.137 82.6484 105.412C83.3884 106.472 83.8344 106.625 85.0884 106.156C85.6354 105.952 85.6594 105.441 86.2894 105.566C86.7454 105.656 87.3904 106.718 87.6954 107.02C88.2724 107.591 88.7984 108.161 89.6254 108.363C90.6014 108.602 91.1384 107.862 91.8494 107.947C93.3334 108.125 94.0444 109.563 95.6304 109.78C97.2294 109.999 97.9824 110.057 99.5004 110.662C101.648 111.517 103.984 111.811 106.284 111.774C108.14 111.744 110.227 111.628 112.014 111.087C112.98 110.795 113.724 110.337 114.745 110.208C115.614 110.098 116.48 110.301 117.355 110.103C119.17 109.691 120.759 108.938 122.646 108.617C124.38 108.321 126.019 107.773 127.695 107.254C128.696 106.944 130.123 106.211 130.732 107.432C131.457 108.889 129.525 111.401 129.001 112.628C129.343 112.608 129.684 112.588 130.026 112.568C128.597 113.104 128.679 113.086 127.994 114.531C127.3 115.995 126.348 117.331 125.799 118.864C124.539 122.382 124.126 126.304 123.35 129.954C121.67 137.85 119.926 145.475 120.377 153.603C120.769 160.663 121.401 168.221 126.444 173.641C127.487 174.762 128.662 175.826 129.397 177.192C130.132 178.56 130.392 179.99 131.375 181.247C133.272 183.671 136.379 185.669 139.384 186.365C142.772 187.15 146.486 187.94 149.961 187.467C153.338 187.008 156.803 186.527 160.149 185.874C167.443 184.451 173.064 178.839 177.774 173.442C180.226 170.632 182.808 167.876 185.122 164.951C185.768 164.136 186.482 162.551 187.521 162.166C188.814 161.687 189.807 162.747 190.983 163.21C192.802 163.924 194.97 164.244 196.881 164.641C198.294 164.935 199.479 164.69 199.403 166.325C199.334 167.817 197.448 170.247 196.768 171.597C195.847 173.424 194.941 175.257 194.034 177.09C190.468 184.3 186.745 191.385 182.669 198.321C178.822 204.87 174.572 211.041 168.59 215.823C162.892 220.38 156.13 224.255 149.415 227.117C145.688 228.706 141.759 229.189 137.76 229.619C136.007 229.807 134.247 229.939 132.495 230.135C131.745 230.219 130.955 230.406 130.202 230.405C129.436 230.403 128.635 229.952 127.942 229.973C126.835 230.007 126.074 230.764 124.833 230.752C123.078 230.735 121.291 230.526 119.533 230.457C115.555 230.302 111.497 230.209 107.575 229.487C99.9424 228.084 95.0064 223.555 89.5214 218.437C87.1894 216.261 84.6454 214.056 82.5534 211.645C81.9454 210.943 81.5424 210.603 81.8374 209.731C81.9684 209.343 82.6244 208.967 82.8844 208.642C83.6244 207.716 84.4424 206.4 84.8074 205.267C85.4224 203.362 83.8864 199.141 81.2364 199.961C79.4374 200.517 79.2114 203.359 77.4644 204.042C75.9094 204.649 75.5474 203.439 75.2354 202.218C74.8294 200.635 74.7304 199.461 73.5124 198.205C72.3874 197.046 70.9664 196.583 70.9404 194.732C70.9314 194.047 71.2754 193.409 71.2124 192.713C71.1484 191.99 70.3294 191.117 70.4204 190.439C70.6114 189.015 73.5264 188.243 74.5824 187.545C76.1344 186.518 77.4984 185.263 78.7324 183.875C81.6104 180.636 83.8994 176.779 85.8754 172.94C89.2094 166.463 91.9594 159.035 91.2184 151.633C90.9394 148.848 90.1604 145.917 88.2874 143.76C85.3714 140.4 81.5134 141.015 77.5064 141.015C80.6944 134.969 85.2264 126.113 80.7454 119.572C77.1104 114.264 69.9714 117.201 65.0174 118.442C65.9994 113.534 67.3764 108.528 66.4644 103.496C65.8774 100.254 64.3744 96.222 61.0874 94.847C57.3774 93.295 52.7614 95.575 49.6824 97.597C45.9964 100.016 42.8154 103.507 40.1964 107.029C38.9294 108.732 36.1184 114.022 34.0244 110.3C33.3484 109.098 33.2014 107.551 32.7184 106.26C31.8314 103.892 30.6684 102.147 29.2014 100.17C28.2384 98.872 28.5434 97.475 27.7474 96.053C27.2694 95.197 26.5154 94.521 26.0514 93.648C25.4644 92.544 25.2714 91.316 24.9044 90.135C24.2594 88.063 22.9944 86.474 21.9394 84.619C20.7114 82.462 20.8074 80.045 19.9434 77.768C17.8944 72.371 14.9764 67.213 12.5904 61.956C10.5844 57.536 8.51539 53.135 4.34739 50.347C3.27639 53.497 3.47939 55.402 4.51339 58.557C5.53739 61.684 6.57739 64.808 7.74539 67.885C9.97439 73.752 12.6874 79.408 15.2624 85.126C17.8584 90.89 20.0194 96.827 22.5724 102.609C23.8134 105.419 25.0944 108.212 26.3324 111.024C27.2134 113.027 29.6454 116.455 28.3744 118.58C27.8564 119.447 26.8614 120.112 26.2044 120.892C25.2744 122 24.5234 123.227 23.7074 124.418C22.0814 126.791 20.3234 129.067 18.6464 131.404C15.1044 136.342 11.9004 141.59 8.65439 146.727C2.13139 157.047 -1.18561 169.839 0.386394 181.955C1.21439 188.337 1.07739 194.778 1.98239 201.16C2.87839 207.483 4.26139 213.769 6.05039 219.899C7.67639 225.47 11.0764 230.781 10.7254 236.694C10.4444 241.435 10.3244 246.197 11.2234 250.891C11.5914 252.814 12.1384 254.724 13.0444 256.466C13.5054 257.353 14.0464 258.198 14.7034 258.955C15.4094 259.768 16.6774 260.311 17.2704 261.115C17.6494 261.629 17.5954 262.527 17.7614 263.116C18.0334 264.077 18.4784 264.928 18.9704 265.792C20.4604 268.411 22.1334 271.225 24.1434 273.475C27.8444 277.617 31.5554 281.931 35.6104 285.737C39.7664 289.638 43.8794 293.868 48.3334 297.417C49.5524 298.387 50.8334 299.291 52.1914 300.056C52.7454 300.369 53.4454 300.858 54.0804 300.988C54.5184 301.079 55.1194 300.892 55.5064 301.021C56.5374 301.361 55.5824 301.089 56.5474 301.986C57.3794 302.759 58.1774 302.904 59.2094 303.418C64.9364 306.272 70.0444 309.891 76.1304 311.977C82.7894 314.259 89.5694 316.811 96.5514 317.885C99.6204 318.358 106.997 316.688 107.608 321.114C109.745 318.992 112.16 320.739 114.52 321.335C114.52 320.733 114.081 319.134 114.52 318.66C115.086 318.049 117.579 318.682 118.14 319.089C119.313 319.942 119.711 321.882 120.249 323.143C121.168 325.297 122.198 327.409 123.162 329.543C126.957 337.95 130.74 346.363 134.578 354.751C142.25 371.525 149.539 388.472 156.916 405.377C158.63 409.303 160.172 413.293 161.823 417.244C163.323 420.837 165.413 424.133 167.077 427.646C168.936 431.573 170.262 435.73 172.073 439.683C173.928 443.734 175.776 447.789 177.613 451.848C185.123 468.444 192.308 485.184 199.533 501.905C207.737 520.892 216.13 539.796 224.542 558.691C215.544 560.652 206.555 563.036 197.424 564.316C193.151 564.915 188.791 564.817 184.539 565.584C182.313 565.984 180.385 566.51 178.109 566.442C175.901 566.377 173.727 566.396 171.518 566.48C162.687 566.812 153.563 566.696 144.812 565.379C141.275 564.847 137.386 563.793 134.045 565.62C131.123 567.217 130.235 570.202 129.706 573.288C123.878 571.911 118.908 568.319 113.203 566.594C107.769 564.95 101.6 564.461 96.1684 566.371C90.7084 568.291 84.7784 571.051 80.1184 574.502C75.3084 578.063 71.9344 583.105 68.9774 588.225C65.6964 593.907 62.7754 599.788 59.5434 605.498C56.2094 611.389 52.8884 617.224 50.0594 623.383C44.3954 635.714 39.9484 648.821 36.9344 662.044C35.7924 667.056 35.1674 672.474 38.5104 676.828C41.9624 681.327 47.5774 681.373 52.5684 679.737C55.3284 678.833 57.8164 677.397 60.3434 675.998C62.7704 674.655 65.2214 673.576 67.3554 671.773C71.9534 667.888 77.0404 664.504 81.7074 660.656C90.5164 653.395 100.315 647.859 107.537 638.819C111.184 634.257 115.836 629.885 118.422 624.582C119.24 622.905 119.76 619.473 116.963 619.41C115.174 619.369 113.523 621.588 112.434 622.754C107.429 628.113 101.926 633.095 96.0664 637.508C93.2954 639.595 90.3134 641.366 87.4014 643.241C84.4814 645.121 81.9144 647.331 79.1294 649.375C76.3824 651.39 73.4424 652.989 70.7874 655.15C68.1104 657.329 65.3704 659.333 62.4564 661.185C56.6084 664.905 50.6624 668.732 43.9824 670.782C43.9824 666.229 46.5194 662.448 47.9704 658.32C49.4944 653.988 50.7464 649.796 52.6244 645.566C54.6384 641.027 56.6564 636.49 58.7964 632.01C60.8144 627.791 63.3684 623.86 65.3774 619.638C67.2034 615.801 69.9124 612.63 71.5104 608.765C72.3344 606.77 73.7334 605.044 74.7854 603.169C75.9504 601.093 77.0194 598.966 78.2094 596.903C82.8444 588.873 89.2524 583.529 97.5024 579.354C101.965 577.096 106.905 575.76 111.912 575.619C117.661 575.458 123.271 577.11 129.011 577.11C128.831 580.727 129.296 584.949 128.157 588.43C127.752 589.663 127.02 590.295 127.23 591.548C127.314 592.047 127.979 592.565 128.096 593.206C128.261 594.109 127.986 595.21 127.94 596.128C127.543 604.089 127.712 612.034 128.129 619.987C128.265 622.573 128.268 626.117 130.904 627.593C132.028 628.222 132.215 627.894 133.295 627.51C134.847 626.958 135.84 627.323 137.332 628.008C138.304 628.454 139.269 628.882 140.249 629.301C140.731 629.506 141.707 629.679 141.96 630.251C142.088 630.542 141.831 631.214 141.951 631.395C142.554 632.308 142.233 631.891 143.578 631.761C145.354 631.591 146.372 632.273 147.91 633.177C161.195 640.988 176.92 641.771 191.898 643.504C199.79 644.417 207.532 645.802 215.502 645.938C223.412 646.072 231.377 646.152 239.256 645.391C242.739 645.054 246.21 644.485 249.674 644.004C250.825 643.844 255.429 642.007 254.062 644.993C253.472 646.279 251.707 647.073 250.711 647.995C249.591 649.032 248.805 650.4 247.548 651.294C245.901 652.465 244.285 653.334 242.737 654.699C237.349 659.456 232.426 664.554 226.771 669.034C224.456 670.868 221.745 672.724 220.244 675.344C218.759 677.933 218.734 681.302 219.044 684.189C219.392 687.419 220.752 690.199 222.017 693.141C223.589 696.797 224.704 700.663 226.028 704.415C227.281 707.966 228.592 711.499 230.061 714.967C231.006 717.199 231.847 720.286 233.631 722.035C234.433 722.821 235.545 723.505 236.701 723C237.831 722.506 237.894 721.177 238.698 720.443C239.853 719.389 240.561 720.153 242.004 720.435C244.005 720.825 244.682 719.887 246.415 719.285C247.638 718.86 248.883 719.385 250.133 718.819C251.265 718.307 252.005 717.189 253.079 716.586C255.949 714.978 260.443 715.113 263.662 714.551C279.556 711.774 295.026 707.017 310.693 703.211C318.523 701.309 326.423 699.655 334.213 697.591C337.857 696.626 341.476 695.568 345.076 694.451C346.996 693.856 348.985 693.332 350.845 692.565C352.588 691.847 354.063 690.891 355.958 690.628C359.55 690.127 362.68 688.699 366.211 687.876C370.023 686.987 373.567 685.312 377.304 684.186C381.097 683.045 385.003 682.307 388.808 681.205C392.693 680.079 396.466 678.602 400.353 677.486C407.878 675.327 415.698 674.189 423.015 671.296C424.525 670.699 425.971 669.902 427.573 669.571C429.523 669.169 431.462 669.213 433.406 668.669C437.319 667.576 441.072 666.07 445.02 665.065C452.487 663.165 460.01 661.41 467.455 659.447C474.515 657.585 481.766 656.732 488.92 655.198C496.7 653.531 504.49 651.844 512.235 650.023C515.782 649.189 519.25 648.242 522.862 647.721C526.629 647.177 530.013 645.552 533.776 645.025C548.745 642.93 563.602 640.556 578.318 637.087C586.021 635.271 593.737 633.524 601.469 631.838C604.981 631.073 608.854 630.676 612.19 629.335C615.699 627.924 619.178 627.6 622.773 626.528C630.305 624.28 638.127 623.313 645.759 621.446C653.238 619.616 660.936 618.359 668.327 616.235C669.702 615.839 671.98 614.462 673.42 614.904C674.534 615.245 674.762 616.497 675.634 617.091C678.009 618.707 680.53 615.567 682.069 614.054C684.263 611.898 686.469 611.092 688.983 609.572C692.073 607.704 695.041 604.434 697.451 601.747C707.456 590.583 721.134 583.999 731.949 573.689C737.518 568.379 742.512 562.716 747.417 556.801C749.695 554.055 752.19 551.498 754.714 548.98C756.094 547.603 757.491 546.242 758.871 544.866C759.726 544.015 761.187 541.733 762.417 541.455C763.561 541.198 764.809 542.242 766.068 541.978C767.215 541.736 768.046 540.925 768.679 539.984C770.229 537.684 770.813 534.121 769.178 531.714Z" fill="black"/>
<path fill-rule="evenodd" clip-rule="evenodd" d="M656.029 377.648C655.925 377.635 656.057 377.653 656.103 377.66C656.053 377.603 655.958 377.637 656.029 377.648Z" fill="black"/>
<path fill-rule="evenodd" clip-rule="evenodd" d="M480.57 534.325C480.503 534.32 480.532 534.371 480.553 534.345C480.519 534.4 480.56 534.34 480.57 534.325Z" fill="black"/>
<path fill-rule="evenodd" clip-rule="evenodd" d="M421.577 213.027C422.422 212.919 423.265 212.811 424.11 212.706C422.856 211.696 422.614 212.159 421.577 213.027Z" fill="black"/>
<path fill-rule="evenodd" clip-rule="evenodd" d="M160.73 393.532C160.379 393.6 160.029 393.669 159.678 393.738C160.233 394.557 160.2 394.157 160.73 393.532Z" fill="black"/>
<path fill-rule="evenodd" clip-rule="evenodd" d="M324.1 338.706C323.143 339.539 322.31 340.457 321.633 341.532C322.838 341.3 324.043 341.067 325.249 340.834C319.707 350.734 316.112 361.554 312.732 372.339C307.532 367.452 302.553 362.353 297.627 357.192C296.023 355.511 293.187 353.64 292.201 351.502C291.753 350.532 291.914 349.926 291.119 349.156C290.159 348.226 288.181 347.844 286.982 347.331C298.965 342.963 311.674 341.316 324.1 338.706ZM280.454 349.099C281.852 348.674 283.68 347.432 285.184 347.634C286.919 347.868 287.098 349.798 288.046 351.064C291.183 355.251 295.406 358.922 299.082 362.632C302.789 366.372 306.366 370.299 310.291 373.812C311.291 374.707 313.059 376.958 314.435 375.962C315.923 374.885 316.669 370.727 317.305 369.013C319.152 364.034 320.661 358.913 322.783 354.04C324.937 349.094 327.371 344.204 329.791 339.384C330.438 338.097 331.722 336.279 330.69 334.87C329.474 333.207 326.867 334.398 325.324 334.837C320.089 336.327 314.651 337.223 309.303 338.206C303.439 339.284 297.74 340.96 292.059 342.752C289.341 343.609 286.627 344.471 283.931 345.395C281.683 346.164 279.051 346.852 277.592 348.893C278.621 349.268 279.382 349.425 280.454 349.099Z" fill="black"/>
<path fill-rule="evenodd" clip-rule="evenodd" d="M353.259 327.531C360.691 325.103 368.328 323.094 376.119 322.271C380.049 321.856 384.011 321.891 387.957 321.916C390.768 321.933 394.819 321.699 392.472 317.954C390.761 315.223 387.14 313.375 384.743 311.265C382.228 309.049 380.574 306.242 378.947 303.353C377.07 300.014 375.077 296.743 373.258 293.371C371.903 290.86 370.815 287.243 368.08 285.919C370.146 292.932 374.293 299.101 377.964 305.344C379.623 308.166 381.325 311.271 383.819 313.46C385.798 315.197 389.106 316.308 390.003 319.014C382.718 319.014 375.331 319.15 368.111 320.202C362.006 321.093 355.654 324.879 349.45 324.368C353.154 315.951 357.435 307.855 361.473 299.602C362.935 296.616 364.52 293.379 365.26 290.101C365.969 286.969 364.239 288.327 363.246 290.27C359.613 297.384 355.945 304.469 352.212 311.536C351.186 313.48 350.211 315.443 349.318 317.452C348.474 319.351 347.182 321.49 347.112 323.627C346.999 327.094 350.256 328.512 353.259 327.531Z" fill="black"/>
<path fill-rule="evenodd" clip-rule="evenodd" d="M239.282 410.256C246.387 408.348 253.238 405.544 260.461 404.066C267.047 402.717 274.59 403.415 280.792 400.648C278.699 396.727 274.428 395.84 271.262 392.873C267.826 389.652 264.931 385.644 261.999 381.972C258.948 378.152 256.481 374.003 253.616 370.06C252.05 367.905 249 363.363 245.941 363.516C244.339 363.596 243.27 365.332 244.474 366.679C245.354 367.663 247.303 367.47 248.445 368.078C251.909 369.924 253.741 374.697 255.952 377.766C258.838 381.771 262.028 385.583 265.197 389.367C268.68 393.527 272.482 396.58 276.941 399.628C263.37 399.802 250.208 403.61 237.419 407.833C239.645 401.221 240.7 394.288 241.677 387.403C242.161 383.983 242.618 380.56 242.932 377.12C243.21 374.09 243.848 370.648 243.098 367.647C241.133 371.062 241.111 375.323 240.688 379.134C240.176 383.752 239.688 388.397 238.851 392.969C238.056 397.313 236.636 401.516 235.814 405.838C235.303 408.526 235.937 411.154 239.282 410.256Z" fill="black"/>
<path fill-rule="evenodd" clip-rule="evenodd" d="M475.357 433.495C476.504 439.491 476.305 445.635 477.542 451.628C478.144 454.551 478.813 457.46 479.506 460.362C480.009 462.467 481.058 465.519 480.231 467.668C478.804 471.38 472.092 463.856 470.628 462.715C465.647 458.834 460.744 454.853 455.828 450.89C462.337 445.091 468.847 439.293 475.357 433.495ZM453.213 452.411C459.775 458.193 467.368 462.779 473.691 468.797C475.645 470.657 479.345 475.233 481.852 471.945C484.184 468.888 482.564 463.329 481.817 460.01C480.832 455.635 480.097 451.197 479.627 446.736C479.386 444.456 479.239 442.167 479.064 439.881C478.893 437.647 478.32 435.356 478.349 433.12C478.358 432.443 478.381 431.637 478.764 431.044C479.12 430.492 479.93 430.351 480.226 429.859C481.159 428.311 479.56 428.141 478.339 428.158C476.675 428.18 476.253 428.42 475.253 429.705C474.091 431.197 472.723 432.232 471.229 433.378C467.244 436.434 463.249 439.487 459.431 442.752C457.42 444.473 449.778 449.383 453.213 452.411Z" fill="black"/>
<path fill-rule="evenodd" clip-rule="evenodd" d="M445.593 359.113C445.697 367.421 447.195 375.722 450.237 383.465C441.472 381.664 433.604 377.186 426.011 372.637C432.538 368.129 439.066 363.621 445.593 359.113ZM425.238 376.246C429.209 378.525 433.131 381.165 437.32 383.026C440.949 384.637 444.902 385.205 448.614 386.556C450.68 387.309 455.107 389.489 453.951 385.285C453.527 383.74 452.558 382.334 451.923 380.87C450.987 378.709 450.271 376.454 449.749 374.158C448.712 369.592 448.39 364.831 448.25 360.16C448.145 356.594 450.88 354.388 454.308 353.503C455.434 353.213 457.966 352.243 455.571 351.01C454.275 350.343 452.29 351.469 451.129 352.03C447.235 353.913 443.786 356.557 440.189 358.927C435.673 361.904 431.067 364.741 426.548 367.716C425.13 368.649 423.217 369.66 422.741 371.428C422.198 373.442 423.559 375.283 425.238 376.246Z" fill="black"/>
<path fill-rule="evenodd" clip-rule="evenodd" d="M270.98 438.825C264.607 436.657 257.959 435.487 251.343 434.342C255.945 428.31 261.183 422.781 266.814 417.704C271.287 425.603 275.706 433.636 278.385 442.352C275.926 441.158 273.578 439.709 270.98 438.825ZM278.915 438.099C277.327 434.285 275.874 430.411 274.061 426.695C273.289 425.111 272.461 423.552 271.524 422.059C270.965 421.17 269.944 420.087 269.806 419.012C269.655 417.824 270.248 417.7 269.901 416.514C269.512 415.181 268.806 414.147 267.293 414.403C264.496 414.875 261.139 418.616 259.178 420.462C256.202 423.264 253.322 426.26 250.662 429.363C248.054 432.403 247.726 435.616 251.665 437.68C254.879 439.365 258.983 439.363 262.51 439.855C266.517 440.413 270.55 441.185 274.137 443.152C275.658 443.986 279.211 447.519 280.279 444.512C280.945 442.636 279.63 439.818 278.915 438.099Z" fill="black"/>
<path fill-rule="evenodd" clip-rule="evenodd" d="M319.259 387.107C315.245 395.473 311.491 403.957 308.096 412.593C306.557 416.507 304.948 420.432 303.689 424.447C303.331 425.586 302.096 431.866 304.942 429.469C305.865 428.691 307.018 426.882 307.467 425.829C308.186 424.145 307.552 422.517 308.167 420.784C309.622 416.683 311.333 412.637 312.88 408.564C314.443 404.449 316.019 400.339 317.608 396.234C318.934 392.808 321.914 388.875 320.924 385.022C320.37 385.703 319.647 386.3 319.259 387.107Z" fill="black"/>
<path fill-rule="evenodd" clip-rule="evenodd" d="M598.548 581.182C577.281 582.237 556.298 587.751 535.678 592.711C514.832 597.727 494.149 603.575 473.819 610.398C463.735 613.783 453.712 617.349 443.649 620.795C435.127 623.714 425.689 626.565 418.22 631.755C416.093 633.233 412.658 636.58 415.848 638.825C417.846 640.23 421.746 640.651 424.155 640.76C426.435 640.863 428.748 640.247 431.06 640.274C433.888 640.309 436.706 640.443 439.533 640.244C444.789 639.874 450.06 638.843 455.21 637.755C460.809 636.572 466.238 635.018 471.949 634.459C474.066 634.251 475.676 633.611 477.681 632.966C479.891 632.254 482.408 632.404 484.576 631.578C485.472 631.236 486.07 630.485 486.974 630.183C488.077 629.814 489.322 630.179 490.454 630.112C493.162 629.951 495.976 629.059 498.63 628.51C501.486 627.919 504.34 627.32 507.193 626.711C509.431 626.233 511.655 625.951 513.431 624.391C511.273 622.644 509.968 623.054 507.359 623.769C504.435 624.569 501.44 625.163 498.486 625.845C492.494 627.228 486.534 628.76 480.514 630.019C468.259 632.582 456.037 634.494 443.577 635.624C440.514 635.901 437.432 636.109 434.388 636.554C431.446 636.984 429.195 637.364 426.237 636.759C423.848 636.27 421.698 636.161 424.338 633.973C425.158 633.294 426.102 632.894 426.969 632.316C428.048 631.597 428.087 630.966 428.759 629.965C429.96 628.176 432.302 628.656 434.255 628.568C436.493 628.467 438.359 627.067 440.576 626.419C443.009 625.707 445.033 625.537 447.227 624.207C448.182 623.628 448.129 623.771 449.143 623.775C450.408 623.779 451.369 623.458 452.549 622.891C454.828 621.795 456.498 620.751 459.032 620.842C460.463 620.893 460.974 620.437 462.289 619.758C463.698 619.032 465.043 618.745 466.602 618.55C469.871 618.143 472.91 617.493 475.961 616.193C477.311 615.618 478.495 614.766 479.82 614.169C480.011 614.083 482.249 613.746 482.286 613.71C482.507 613.492 482.112 612.402 483.008 612.316C483.812 612.24 484.128 613.133 485.012 612.983C485.389 612.919 485.323 612.403 485.619 612.269C486.207 612.005 486.525 611.898 487.181 611.89C489.836 611.854 491.224 611.362 493.667 610.2C494.755 609.683 495.746 609.394 496.908 609.081C498.138 608.749 498.51 608.191 499.535 607.639C501.284 606.697 501.584 608.69 503.429 608.288C504.33 608.091 505.03 607.353 505.817 606.924C506.879 606.346 507.722 606.319 508.908 606.178C511.181 605.907 513.172 604.838 515.407 604.454C516.341 604.292 517.134 603.896 518.048 603.688C519.259 603.412 520.509 603.674 521.705 603.255C523.687 602.563 524.555 601.183 526.699 601.189C529.293 601.198 531.537 600.298 533.983 599.402C536.619 598.436 539.2 597.2 542.005 596.824C544.616 596.473 547.226 596.525 549.805 595.913C552.393 595.298 554.864 594.287 557.383 593.451C560.118 592.543 562.826 592.178 565.646 591.671C568.046 591.241 570.648 591.136 572.995 590.568C574.035 590.316 574.895 589.691 575.919 589.431C577.113 589.128 578.179 589.223 579.356 588.696C580.399 588.229 581.299 587.395 582.473 587.25C583.901 587.074 585.188 587.39 586.657 587.07C587.997 586.779 589.012 586.846 590.313 586.773C591.365 586.714 592.003 586.098 593.194 585.696C595.72 584.841 598.582 585.257 601.197 584.777C603.782 584.301 606.62 583.758 608.832 582.25C605.98 580.251 601.783 581.021 598.548 581.182Z" fill="black"/>
<path fill-rule="evenodd" clip-rule="evenodd" d="M549.038 608.013C540.77 607.457 532.609 608.884 524.425 609.798C517.729 610.545 510.528 610.65 504.457 613.927C512.039 613.419 519.66 613.19 527.194 612.14C534.036 611.188 541.118 609.052 548.003 610.888C544.883 613.328 540.943 614.153 537.265 615.369C532.667 616.889 528.108 618.531 523.521 620.081C525.229 622.285 529.459 619.806 531.527 619.202C534.823 618.24 538.06 617.156 541.249 615.879C544.004 614.776 546.994 613.969 549.596 612.528C552.553 610.89 552.78 608.264 549.038 608.013Z" fill="black"/>
<path fill-rule="evenodd" clip-rule="evenodd" d="M399.293 521.299C398.236 518.974 395.131 517.498 393.532 515.461C391.232 512.529 388.939 509.626 386.532 506.778C384.288 504.123 382.239 501.362 380.553 498.314C378.725 495.013 377.535 491.388 375.569 488.163C374.972 489.339 374.252 490.776 374.47 492.142C374.68 493.464 375.73 494.155 376.455 495.184C378.283 497.772 379.212 500.995 381.037 503.665C384.959 509.404 389.713 514.516 394.095 519.897C383.489 521.301 372.884 522.706 362.278 524.11C364.7 517.165 367.587 510.358 369.9 503.387C371.007 500.056 371.872 496.666 372.763 493.274C373.464 490.603 374.566 487.36 372.519 484.981C371.289 489.223 370.449 493.552 368.94 497.714C367.453 501.818 365.674 505.821 364.041 509.869C362.446 513.821 355.647 526.96 364.009 527.717C367.521 528.035 371.442 527.027 374.891 526.491C379.244 525.814 383.593 525.069 387.964 524.515C389.618 524.305 400.918 524.876 399.293 521.299Z" fill="black"/>
<path fill-rule="evenodd" clip-rule="evenodd" d="M330.166 546.934C327.361 543.725 324.453 540.608 321.583 537.456C319.657 539.455 320.308 540.172 322.181 542.048C323.908 543.78 325.773 545.398 327.435 547.195C329.099 548.996 328.839 549.867 327.064 551.388C325.106 553.067 322.983 554.567 320.986 556.202C316.881 559.562 312.792 562.945 308.614 566.218C305.223 568.875 301.211 573.059 296.987 574.281C295.912 568.654 294.837 563.027 293.762 557.4C291.728 557.884 291.338 558.378 291.685 560.517C292.118 563.19 292.95 565.802 293.469 568.462C293.91 570.725 294.853 573.238 294.478 575.563C294.318 576.554 293.626 577.491 293.604 578.496C293.58 579.67 294.351 580.348 294.852 581.348C303.034 576.01 310.754 569.992 318.317 563.817C321.903 560.889 325.389 557.817 329.057 554.993C330.187 554.122 331.716 553.335 332.049 551.818C332.406 550.194 331.186 548.101 330.166 546.934Z" fill="black"/>
<path fill-rule="evenodd" clip-rule="evenodd" d="M354.975 458.901C344.989 460.792 334.891 461.987 324.818 463.298C326.945 466.97 330.564 465.972 334.05 465.485C339.175 464.77 344.367 464.187 349.525 463.788C349.897 472.88 350.755 482.002 350.706 491.105C350.694 493.367 350.577 496.396 347.915 497.042C344.185 497.948 339.108 495.497 335.584 494.477C336.329 495.695 335.222 496.892 336.463 497.941C337.25 498.605 338.649 498.694 339.607 499.003C342.584 499.962 345.607 501.35 348.819 500.656C353.56 499.631 352.881 494.14 352.785 490.416C352.598 483.257 351.835 475.975 352.204 468.818C352.351 465.987 353.506 464.874 355.628 463.218C356.427 462.595 357.37 462.006 357.413 460.874C357.462 459.538 356.231 458.663 354.975 458.901Z" fill="black"/>
<path fill-rule="evenodd" clip-rule="evenodd" d="M16.8933 214.599C16.6633 214.713 16.7453 214.722 16.6973 214.989C16.8493 214.986 16.9143 214.856 16.8933 214.599Z" fill="black"/>
<path fill-rule="evenodd" clip-rule="evenodd" d="M210.638 580.016C208.779 578.898 208.018 581.002 207.261 582.297C205.766 584.851 204.238 587.39 202.736 589.941C201.716 587.723 201.476 585.297 201.199 582.903C201.061 581.714 201.242 577.696 199.183 578.837C197.424 579.812 198.764 582.82 199.002 584.279C199.382 586.606 199.638 589.016 200.397 591.262C202.049 596.147 204.992 593.099 206.83 590.174C208.248 587.918 209.799 585.743 211.179 583.462C212.142 581.871 212.388 581.068 210.638 580.016Z" fill="black"/>
<path fill-rule="evenodd" clip-rule="evenodd" d="M236.035 619.748C232.823 623.429 229.67 627.161 226.492 630.871C231.055 630.657 232.47 628.196 235.279 625.124C236.208 624.109 237.554 622.42 239.015 622.188C240.133 622.01 239.8 621.869 240.602 623.148C241.149 624.019 241.762 624.86 242.36 625.696C242.922 626.481 244.888 629.022 245.855 626.874C246.306 625.871 244.046 623.612 243.479 622.808C241.739 620.337 239.067 616.275 236.035 619.748Z" fill="black"/>
<path fill-rule="evenodd" clip-rule="evenodd" d="M336.036 142.628C337.374 148.024 342.4 144.007 344.292 141.551C347.022 138.006 348.646 133.505 349.502 129.146C349.855 127.343 350.13 125.081 349.321 123.35C348.383 121.34 346.616 121.786 345.413 123.274C343.932 125.106 343.367 127.891 342.479 130.036C341.483 132.441 340.367 134.819 338.942 137.003C337.786 135.771 336.015 134.428 335.309 136.728C334.765 138.509 335.608 140.905 336.036 142.628Z" fill="black"/>
<path fill-rule="evenodd" clip-rule="evenodd" d="M327.649 131.402C330.09 131.182 333.865 129.557 334.745 127.044C336.448 122.179 329.134 124.463 326.932 124.75C327.042 122.994 328.377 117.469 325.948 116.595C324.124 115.94 323.174 119.697 322.921 120.923C322.211 124.373 322.515 131.863 327.649 131.402Z" fill="black"/>
<path fill-rule="evenodd" clip-rule="evenodd" d="M317.841 141.637C317.792 143.329 320.775 151.51 323.497 148.266C324.746 146.778 323.294 145.671 322.432 144.546C321.057 142.751 320.432 140.508 319.146 138.644C318.74 139.481 317.841 140.684 317.841 141.637Z" fill="black"/>
<path fill-rule="evenodd" clip-rule="evenodd" d="M430.369 219.111C429.456 220.147 428.616 220.999 429.299 222.376C429.611 223.007 430.843 224.472 431.714 224.228C432.527 224 432.454 222.833 432.277 222.208C431.911 220.918 430.619 220.61 431.297 219.066C430.988 219.08 430.679 219.096 430.369 219.111Z" fill="black"/>
<path fill-rule="evenodd" clip-rule="evenodd" d="M278.302 211.601C278.338 211.783 278.415 211.945 278.534 212.088C279.612 211.132 278.374 211.148 278.302 211.601Z" fill="black"/>
<path fill-rule="evenodd" clip-rule="evenodd" d="M84.0144 297.31C83.9124 297.145 83.8124 296.98 83.7104 296.816C83.3734 297.124 83.3694 297.436 83.7004 297.753C83.8044 297.605 83.9104 297.457 84.0144 297.31Z" fill="black"/>
</svg>
